<svg width="327" height="360" viewBox="0 0 327 360" fill="none" xmlns="http://www.w3.org/2000/svg">
<g clip-path="url(#clip0_36352_28343)">
<circle cx="164" cy="179.345" r="123.5" transform="rotate(-135 164 179.345)" fill="#FAB9C8"/>
<path d="M276.868 229.474C285.683 209.628 289.109 187.809 286.8 166.216C284.492 144.624 276.531 124.022 263.72 106.488C250.91 88.9537 233.702 75.1073 213.833 66.345C193.964 57.5827 172.136 54.2142 150.55 56.5792C150.55 56.5792 129.14 65.097 138.898 86.3601C159.867 132.054 223.456 212.558 239.661 224.6C264.792 243.274 248.698 129.992 260.874 157.424C272.567 183.768 276.868 229.474 276.868 229.474Z" fill="#FFE0E7"/>
<path d="M281.799 216.435C276.343 233.763 267.131 249.674 254.821 263.033C242.511 276.393 227.405 286.872 210.58 293.724C193.755 300.575 175.626 303.631 157.484 302.673C139.343 301.714 121.637 296.765 105.628 288.179C89.6184 279.593 75.7006 267.58 64.8665 252.998C54.0323 238.416 46.5486 221.623 42.9488 203.816C39.3491 186.01 39.722 167.629 44.041 149.983C48.3599 132.338 56.5186 115.862 67.9352 101.731C67.9352 101.731 97.1784 82.1174 104.249 108.28C113.3 141.767 124.048 237.681 160.464 260.662C226.518 302.346 281.799 216.435 281.799 216.435Z" fill="#F86C8C"/>
<path d="M138.468 17.8921C135.832 15.4201 132.712 13.8921 129.018 14.006C128.819 14.0125 128.621 14.0239 128.423 14.0401C128.225 14.0568 128.028 14.0781 127.831 14.1042C127.634 14.1302 127.438 14.1612 127.243 14.197C127.047 14.2328 126.853 14.2736 126.659 14.3192C126.466 14.3644 126.274 14.4146 126.083 14.4697C125.892 14.5247 125.703 14.5843 125.515 14.6485C125.327 14.713 125.141 14.7821 124.956 14.8557C124.772 14.929 124.589 15.007 124.408 15.0898C124.228 15.1722 124.049 15.2592 123.873 15.3507C123.697 15.4422 123.523 15.538 123.351 15.638C123.179 15.738 123.01 15.8423 122.844 15.9508C122.677 16.0589 122.514 16.1713 122.353 16.2879C122.192 16.4045 122.034 16.5249 121.879 16.649C121.724 16.7735 121.572 16.9015 121.424 17.0331C121.275 17.165 121.13 17.3006 120.988 17.4397C120.846 17.5784 120.708 17.7208 120.573 17.8667C120.423 18.0326 120.276 18.2018 120.134 18.3744C119.992 18.5474 119.854 18.7238 119.72 18.9036C119.587 19.0835 119.458 19.2664 119.333 19.4524C119.209 19.6384 119.089 19.8275 118.974 20.0197C118.859 20.2116 118.749 20.4064 118.644 20.6041C118.538 20.8015 118.438 21.0016 118.342 21.2042C118.247 21.4065 118.157 21.6112 118.071 21.8184C117.986 22.0253 117.906 22.2341 117.831 22.4449C117.756 22.656 117.686 22.8687 117.622 23.083C117.557 23.2974 117.498 23.5132 117.444 23.7305C117.391 23.9481 117.342 24.1667 117.299 24.3862C117.256 24.6061 117.219 24.8269 117.187 25.0484C117.155 25.2699 117.128 25.4921 117.107 25.7149C117.086 25.9377 117.071 26.161 117.061 26.3848C117.051 26.6083 117.047 26.8321 117.048 27.0562C117.049 27.28 117.056 27.5037 117.068 27.7271C117.223 30.4342 118.249 32.7357 119.793 34.9244C121.419 36.3698 122.944 37.3295 124.957 38.1563C125.186 37.5626 125.292 36.8399 125.438 36.2159C125.596 35.2581 125.802 34.3106 126.055 33.3734C127.867 26.3892 132.338 21.4681 138.468 17.8921Z" fill="#5A3F36"/>
<path d="M148.1 321.829L148.152 327.037L145.342 327.05C145.095 328.689 144.938 330.408 144.588 332.024C144.253 334.278 143.994 336.54 143.81 338.81L146.026 339.437C153.658 341.245 161.558 341.783 169.285 343.068C171.476 343.03 173.803 341.854 175.716 340.898C174.098 337.349 172.121 335.619 168.691 333.883C166.23 332.779 163.564 331.448 160.932 330.875C160.644 330.576 160.539 330.376 160.414 329.981L160.834 329.213L160.648 328.626C160.942 328.03 161.163 327.703 161.062 327.019C160.827 326.831 160.608 326.672 160.346 326.52C160.266 326.474 160.185 326.43 160.104 326.385C160.132 325.591 160.086 324.954 159.906 324.178C158.741 323.492 157.747 323.158 156.389 323.072L154.641 322.33C152.675 322.547 150.013 322.333 148.1 321.829Z" fill="#FF9D73"/>
<path d="M168.691 333.883C168.033 334.237 167.633 334.468 167.21 335.117C166.832 337.166 168.792 340.863 169.285 343.069C171.476 343.03 173.803 341.854 175.716 340.899C174.098 337.349 172.121 335.62 168.691 333.883Z" fill="#CC8FFC"/>
<path d="M148.1 321.829L148.153 327.037C150.145 327.394 152.014 327.757 153.83 328.703C154.515 329.549 155.32 329.608 156.324 329.813L155.979 329.777L156.387 330.022L156.117 330.553C157.072 331.324 157.536 331.757 158.813 331.618C159.602 331.533 160.245 331.248 160.933 330.875C160.644 330.576 160.54 330.376 160.415 329.981L160.835 329.213L160.649 328.626C160.943 328.03 161.164 327.703 161.063 327.019C160.828 326.831 160.609 326.672 160.347 326.52C160.267 326.474 160.186 326.43 160.105 326.385C160.133 325.591 160.087 324.954 159.907 324.178C158.742 323.492 157.748 323.158 156.39 323.072L154.642 322.33C152.676 322.547 150.013 322.333 148.1 321.829Z" fill="#0C0B0D"/>
<path d="M148.1 321.829L148.152 327.037C150.144 327.394 152.013 327.757 153.829 328.703C153.702 327.481 153.484 326.255 153.969 325.078C154.427 323.97 155.332 323.495 156.39 323.072L154.642 322.33C152.675 322.547 150.013 322.333 148.1 321.829Z" fill="#FC9D96"/>
<path d="M164.377 20.3772C163.323 19.6501 162.278 18.8907 161.175 18.2398C156.158 15.2791 149.389 14.2642 143.759 15.9144C142.091 16.403 140.539 17.3886 138.858 17.8015C138.729 17.8333 138.599 17.8621 138.47 17.8924C132.34 21.4683 127.869 26.3895 126.057 33.3737C125.804 34.3109 125.598 35.2584 125.44 36.2161C125.294 36.8401 125.188 37.5628 124.959 38.1565L124.908 39.0517C124.885 39.9655 124.956 41.0053 124.737 41.8932C125.114 47.2219 127.174 51.3598 130.02 55.802C131.366 55.6081 131.943 55.5817 133.067 56.4373C134.472 57.5084 135.63 59.118 136.751 60.4843C137.283 60.626 137.593 60.6885 138.135 60.5703C138.659 56.8297 138.684 53.091 140.658 49.7443L141.589 49.5479C150.14 47.7184 159.535 43.3875 164.445 35.8032C165.488 34.5362 166.323 32.9525 167.052 31.4821C172.081 35.079 174.869 40.0838 175.846 46.1782C175.978 47.0005 176.026 47.7228 175.915 48.554C175.952 49.2532 176.028 49.9798 176.001 50.6781L176.233 50.9781C176.321 50.8907 176.406 50.8003 176.498 50.7162C176.804 50.4343 176.911 50.3644 177.3 50.2823C178.053 51.5567 177.543 54.3869 177.546 55.8621L177.659 55.9213C177.689 50.6004 177.941 45.9221 179.4 40.7747C179.942 38.7625 180.171 36.6623 180.33 34.5909C180.007 31.1303 179.038 28.1676 176.748 25.506C173.412 21.6296 169.208 20.7114 164.377 20.3772Z" fill="#6F4E43"/>
<path d="M164.444 35.803C164.328 35.8201 164.211 35.8328 164.095 35.8533C162.763 36.0923 159.962 38.6723 158.636 39.503C154.054 42.3723 144.847 45.011 139.457 44.109C137.522 43.7855 135.717 42.7315 134.076 41.7058C131.185 39.8952 128.306 38.0652 125.44 36.2159C125.294 36.8399 125.188 37.5626 124.959 38.1563L124.908 39.0515C124.885 39.9653 124.956 41.0051 124.737 41.893C125.113 47.2217 127.174 51.3595 130.019 55.8018C131.365 55.6078 131.943 55.5814 133.066 56.437C134.472 57.5081 135.63 59.1178 136.751 60.484C137.283 60.6257 137.592 60.6883 138.134 60.57C138.658 56.8294 138.683 53.0908 140.658 49.7441L141.588 49.5476C150.139 47.7181 159.534 43.3873 164.444 35.803Z" fill="#5A3F36"/>
<path d="M167.05 31.4819C166.322 32.9523 165.487 34.536 164.444 35.803C159.534 43.3873 150.138 47.7182 141.588 49.5477L140.657 49.7441C138.683 53.0908 138.658 56.8295 138.133 60.5701C137.591 60.6883 137.282 60.6258 136.75 60.4841L136.076 61.0079L136.891 63.0866C138.862 71.463 141.598 74.9905 146.98 81.4748C151 84.5479 154.166 85.2887 159.022 86.3344C159.208 86.3471 159.394 86.353 159.581 86.354C163.791 86.3745 167.926 83.8941 170.82 81.0057C178.814 73.0286 177.566 66.2511 177.545 55.862C177.542 54.3867 178.052 51.5565 177.299 50.2821C176.91 50.3642 176.803 50.4341 176.496 50.716C176.405 50.8001 176.32 50.8905 176.232 50.9779L176 50.6779C176.027 49.9796 175.951 49.253 175.914 48.5538C176.025 47.7226 175.977 47.0004 175.845 46.178C174.868 40.0836 172.08 35.0789 167.05 31.4819Z" fill="#FFBAAB"/>
<path d="M175.914 48.5537C174.515 47.0521 173.31 46.3987 171.245 46.3401C170.225 46.3113 168.84 46.4676 168.097 47.2417C167.855 47.4938 167.731 47.9228 167.722 48.2683C167.717 48.4769 167.814 48.7662 167.872 48.9695C170.234 48.517 171.433 46.4882 173.955 48.2307C174.876 48.8669 175.416 49.7494 176 50.6778C176.027 49.9795 175.951 49.2529 175.914 48.5537Z" fill="#0C0B0D"/>
<path d="M156.213 47.5636C153.971 47.3706 152.121 47.7204 150.044 48.5873C148.829 49.094 146.909 50.0733 146.475 51.4341C146.364 51.7811 146.443 51.7102 146.681 52.0557C147.263 52.1505 147.282 52.1588 147.801 51.8832C150.031 49.7884 152.079 48.5663 155.2 49.0339C156.067 49.1639 156.957 49.3613 157.83 49.223L157.85 48.8937C157.371 48.3513 156.801 47.9755 156.213 47.5636Z" fill="#0C0B0D"/>
<path d="M155.813 73.5103C155.625 74.1196 155.745 74.4612 156.052 75.0236C156.869 76.5228 158.597 78.279 160.314 78.6713C161.085 78.8473 161.792 78.7197 162.46 78.2878C163.41 77.6735 163.917 76.2218 164.249 75.1932C163.23 75.7136 162.267 76.2188 161.098 76.2447C158.91 76.2926 157.333 74.8892 155.813 73.5103Z" fill="#FD6C8E"/>
<path d="M172.255 54.3088C171.414 54.3269 170.734 54.4447 170.078 55.032C169.444 55.5998 169.142 56.3875 169.112 57.2275C169.055 58.8337 169.698 60.0162 170.739 61.1768C171.627 61.2466 172.107 61.1504 172.793 60.5508C173.394 60.0255 173.716 59.0946 173.758 58.3162C173.853 56.5771 173.403 55.5691 172.255 54.3088Z" fill="#0C0B0D"/>
<path d="M162.473 56.2356C161.905 57.5681 161.569 62.9491 161.645 64.4507C161.706 65.6567 161.899 66.4981 162.793 67.3323C163.522 67.6684 164.051 67.5561 164.812 67.449C165.244 67.0239 165.821 66.4356 166.059 65.8624C166.195 65.5335 166.326 65.0332 166.238 64.6711C166.046 63.8722 164.879 63.0151 164.469 62.222C163.559 60.4624 163.07 58.1374 162.473 56.2356Z" fill="#FD849A"/>
<path d="M153.282 54.8196C152.468 54.9457 151.786 55.1054 151.154 55.6713C150.494 56.2621 150.137 57.0131 150.092 57.8971C150.002 59.6264 150.81 60.7532 151.945 61.9533C152.333 61.8922 152.746 61.8292 153.116 61.6948C153.979 61.3826 154.558 60.6511 154.955 59.8507C155.447 58.8597 155.537 57.7686 155.174 56.7189C154.811 55.6684 154.259 55.2833 153.282 54.8196Z" fill="#0C0B0D"/>
<path d="M86.3751 293.143C85.0861 294.064 84.6067 295.214 83.9993 296.642C86.5535 305.801 90.2423 319.328 98.9968 324.347C100.133 324.998 101.549 325.649 102.886 325.293C103.853 325.035 104.805 324.267 105.289 323.399C105.443 323.122 105.566 322.832 105.697 322.544L105.854 322.203C93.1805 317.286 91.8978 303.819 86.3751 293.143Z" fill="#0C0B0D"/>
<path d="M102.898 284.377C102.439 283.53 102.043 282.869 101.348 282.196L98.2406 285.23L96.7004 286.68C95.6444 287.868 94.4336 288.809 93.1909 289.791C91.1704 291.189 88.8879 292.844 86.3763 293.143C91.899 303.819 93.1817 317.286 105.855 322.203C105.878 322.122 105.904 322.041 105.926 321.959C106.313 320.513 106.546 319.103 106.59 317.606C106.659 315.232 106.048 308.059 104.907 306.245C104.857 306.165 104.797 306.092 104.743 306.015L104.951 305.43C105.066 304.974 105.026 305.188 105.09 304.64C105.195 303.755 105.448 302.655 104.79 301.935C104.495 301.612 103.627 301.771 103.19 301.776L103.023 301.39L103.271 300.996C103.797 300.879 104.182 300.85 104.605 300.497C104.523 300.02 104.399 299.483 104.407 298.999C104.421 298.202 105.359 297.322 105.87 296.723L105.988 296.47C107.362 295.938 108.341 294.997 109.405 294.017L109.525 293.973C109.516 293.404 107 290.92 106.487 290.287C105.041 288.504 103.876 286.448 102.898 284.377Z" fill="#FF9D73"/>
<path d="M102.274 292.889C100.064 293.678 99.3198 294.469 98.2116 296.504C98.6406 298.84 100.021 300.589 100.733 302.762L101.962 305.406L104.951 305.43C105.066 304.974 105.026 305.188 105.09 304.641C105.194 303.756 105.447 302.655 104.79 301.935C104.495 301.612 103.627 301.771 103.19 301.776L103.023 301.391L103.271 300.996C103.796 300.88 104.182 300.851 104.605 300.497C104.522 300.02 104.399 299.483 104.407 299C104.42 298.202 105.359 297.322 105.87 296.723C104.826 295.131 103.798 294.006 102.274 292.889Z" fill="#0C0B0D"/>
<path d="M102.898 284.377C102.439 283.53 102.043 282.869 101.348 282.196L98.2406 285.23L96.7004 286.68C95.6444 287.868 94.4336 288.809 93.1909 289.791C95.2907 291.887 96.7571 293.922 98.2118 296.503C99.32 294.469 100.064 293.678 102.274 292.889C103.798 294.006 104.826 295.13 105.87 296.723L105.988 296.47C107.362 295.938 108.341 294.997 109.405 294.017L109.525 293.973C109.516 293.404 107 290.92 106.487 290.287C105.041 288.504 103.876 286.448 102.898 284.377Z" fill="#FD849A"/>
<path d="M202.7 184.099C200.737 185.276 199.378 186.534 198.81 188.853C198.289 190.977 198.619 193.338 198.838 195.485C198.998 196.383 199.159 197.474 199.534 198.307C199.741 198.766 199.777 198.897 200.263 199.058C200.727 197.932 200.264 196.506 200.027 195.345C199.967 193.748 199.95 192.052 200.064 190.459C200.242 187.967 201.315 186.581 203.098 185.011L202.7 184.099Z" fill="#2F2C53"/>
<path d="M213.882 179.021C213.833 179.074 213.785 179.129 213.736 179.181C213.199 179.757 212.713 180.076 212.009 180.416L211.864 180.783L212.393 181.418C213.882 180.416 214.464 180.416 216.367 180.783C219.034 182.775 220.651 185.719 221.885 188.774C221.998 189.092 222.113 189.409 222.231 189.725C222.565 190.621 222.884 191.7 223.817 192.126L224.062 191.788C224.011 190.564 223.131 188.774 223.131 188.774C223.131 188.774 219.402 177.876 213.882 179.021Z" fill="#2F2C53"/>
<path d="M174.963 143.548C173.794 146.42 172.673 149.311 171.601 152.221C171.496 152.865 171.353 153.523 171.305 154.173C178.874 164.838 189.023 176.335 201.664 180.796C200.519 178.355 193.556 173.123 191.203 170.859C186.378 166.217 181.621 161.013 178.452 155.073C176.556 151.521 176.421 147.307 174.963 143.548Z" fill="#FDA57D"/>
<path d="M179.296 133.38C177.71 136.692 176.304 140.13 174.962 143.548C176.42 147.307 176.556 151.521 178.451 155.073C181.62 161.013 186.377 166.217 191.202 170.859C193.556 173.123 200.518 178.355 201.663 180.797C202.443 181.711 202.26 183.024 202.7 184.099L203.098 185.012C203.368 185.241 203.679 185.414 203.978 185.602C204.706 185.638 205.027 185.536 205.668 185.246C206.303 184.628 206.338 183.948 206.466 183.113C206.542 182.609 206.435 182.833 206.766 182.457C207.808 183.283 208.693 184.235 210.085 184.427C210.709 184.513 211.356 184.382 211.824 183.934C212.572 183.218 212.469 182.349 212.393 181.419L211.865 180.783L212.009 180.416C212.713 180.076 213.199 179.757 213.736 179.182C213.786 179.129 213.833 179.075 213.882 179.021C213.149 177.911 212.179 176.897 210.901 176.44C209.106 175.798 207.511 176.398 205.891 177.162C202.259 173.597 183.395 153.494 182.375 150.511C180.612 145.353 180.442 138.823 179.296 133.38Z" fill="#FFBAAB"/>
<path d="M193.712 196.276C193.39 196.404 192.659 196.573 192.513 196.883C192.102 197.761 192.037 225.105 192.133 228.143C192.163 229.073 192.269 230.266 192.687 231.114C192.869 231.482 192.886 231.482 193.101 231.763C194.178 232.047 195.426 231.796 196.499 231.553C200.332 230.686 204.166 229.197 207.939 228.061C216.22 225.624 224.478 223.107 232.711 220.511C232.118 219.076 228.684 218.989 227.311 218.709C217.91 216.795 208.403 212.118 201.708 205.171C199.476 202.854 197.608 199.824 195.179 197.756C194.632 197.29 194.176 196.825 193.712 196.276Z" fill="#B252FD"/>
<path d="M227.724 186.511C226.108 187.185 224.413 187.504 222.929 188.47C223.438 189.56 224.011 190.565 224.062 191.788L223.817 192.126C222.884 191.7 222.565 190.621 222.231 189.726C222.113 189.409 221.998 189.092 221.885 188.774C214.701 191.273 207.533 193.958 200.026 195.346C200.263 196.506 200.727 197.932 200.263 199.058C199.777 198.898 199.741 198.767 199.534 198.308C199.159 197.474 198.998 196.383 198.838 195.485C197.116 195.701 195.417 195.951 193.712 196.276C194.175 196.826 194.632 197.29 195.179 197.756C197.608 199.824 199.476 202.854 201.708 205.171C208.402 212.118 217.909 216.796 227.311 218.709C228.684 218.989 232.117 219.077 232.711 220.511C235.382 219.805 239.885 219.054 241.989 217.286C242.423 214.786 229.896 190.015 227.724 186.511Z" fill="#CC8FFC"/>
<path d="M136.75 60.4841C135.629 59.1178 134.471 57.5082 133.066 56.4371C131.942 55.5815 131.365 55.6079 130.018 55.8019C128.365 56.8964 127.01 58.2534 126.542 60.249C126.145 61.9412 126.517 63.2874 127.184 64.8423C128.528 66.5731 129.995 67.9584 132.256 68.2765C133.348 68.4295 134.383 68.275 135.444 68.0097L135.547 68.3391C137.5 74.6875 136.76 76.3045 143.036 80.4223C143.991 81.0492 145.454 81.7622 146.154 82.6437C145.492 84.3236 145.683 90.2148 145.92 92.0877C145.765 92.4298 145.326 93.1349 145.366 93.4828C148.889 95.8107 158.25 95.9734 162.309 95.2752L162.32 93.8205C161.135 93.4994 159.95 93.1593 159.148 92.1781C159.119 90.2226 158.912 88.2954 159.022 86.3344C154.166 85.2887 151 84.5479 146.98 81.4748C141.598 74.9905 138.862 71.463 136.891 63.0866L136.076 61.0079L136.75 60.4841Z" fill="#FC9D96"/>
<path d="M136.076 61.0077L135.719 60.9378C134.482 60.6852 132.465 59.6439 131.279 60.7443C131.22 60.7991 130.94 61.1905 130.888 61.2633L131.147 60.8445L130.893 61.491C131.308 62.3876 132.129 62.9486 133.061 63.2472C133.59 63.4167 134.153 63.4148 134.702 63.4392L135.95 63.4949L136.892 63.0864L136.076 61.0077Z" fill="#FD849A"/>
<path d="M146.98 81.4749L146.301 82.1052L146.345 82.6481C148.157 83.6635 149.532 85.6542 150.985 87.1251C152.566 88.7264 154.425 89.989 156.424 91.0074C157.258 91.432 158.231 92.0105 159.147 92.1782C159.119 90.2226 158.912 88.2954 159.022 86.3344C154.166 85.2887 151 84.5479 146.98 81.4749Z" fill="#FD849A"/>
<path d="M105.825 146.486L103.672 163.586C103.274 166.767 102.997 170.032 102.411 173.183C101.904 179.055 100.889 184.958 100.679 190.846C98.6387 192.102 97.656 193.66 96.3958 195.625C95.0325 198.399 93.5328 201.482 93.311 204.607L93.5011 205.04C94.1549 204.931 94.644 204.516 95.0423 203.976C95.7352 203.039 96.0919 201.748 96.5717 200.686C96.151 202.541 94.4388 206.49 95.0491 208.202C95.4576 208.575 95.6614 208.754 96.2135 208.845C96.6377 207.749 96.991 206.499 97.7034 205.558L97.8334 205.68C97.4166 207.207 96.518 209.825 97.3619 211.291C97.5451 211.611 97.7591 211.737 98.0733 211.893C98.6519 211.727 98.8498 211.54 99.1562 211.012C100.33 208.99 100.475 205.398 100.837 203.061C101.06 205.322 100.362 209.772 100.939 211.535L101.448 211.716C103.07 210.242 103.044 206.648 103.289 204.539C104.011 203.637 104.68 202.701 105.354 201.763C105.61 203.615 105.671 206.941 107.076 208.253C107.642 208.358 107.649 208.336 108.162 208.065C110.412 204.55 106.827 196.005 107.444 191.979C108.119 187.577 109.637 183.103 110.799 178.804L117.562 153.995C113.509 151.896 110.028 148.077 105.825 146.486Z" fill="#FFBAAB"/>
<path d="M145.919 92.0875C141.143 91.7699 135.9 94.0289 131.165 94.865C122.837 97.1191 118.796 103.747 114.711 110.863C110.318 118.515 107.969 126.7 104.399 134.689L107.639 136.339C106.788 139.671 106.303 143.083 105.825 146.486C110.028 148.077 113.509 151.895 117.562 153.995C118.388 149.873 119.694 145.593 120.932 141.57C122.079 142.179 123.519 142.593 124.739 143.066C126.91 137.719 128.674 132.112 130.433 126.616C131.618 128.673 131.348 149.215 131.179 152.957C131.011 156.694 130.88 160.895 129.945 164.515C129.92 164.612 129.892 164.709 129.865 164.806C129.923 164.979 129.967 165.239 130.093 165.37C129.118 166.054 128.211 170.142 127.84 171.395C131.462 172.453 135.077 173.151 138.809 173.704C141.06 173.946 143.714 173.951 145.882 174.524C147.81 174.594 151.305 174.315 152.997 175.087L153.429 175.699C155.242 176.061 157.198 176.315 159.043 176.334C160.389 176.348 163.311 176.255 164.256 175.313L164.215 175.118C166.699 174.881 169.219 174.717 171.677 174.277C171.253 171.743 171.39 169.082 171.275 166.514C170.971 162.584 170.742 158.078 171.304 154.172C171.625 149.765 176.606 140.842 179.443 133.214C180.474 132.755 181.552 132.254 182.512 131.66C184.217 130.603 185.415 129.106 185.81 127.115C187.238 119.925 182.11 108.04 178.195 102.161C177.297 100.812 176.281 99.4236 175.011 98.4023C171.958 95.9468 166.159 94.5772 162.319 93.8202L162.308 95.2749C158.249 95.9732 148.888 95.8105 145.365 93.4826C145.325 93.1347 145.764 92.4296 145.919 92.0875Z" fill="#73E6A1"/>
<path d="M164.253 132.084C159.956 134.295 153.368 133.657 148.626 133.435C148.334 133.884 150.531 134.613 150.272 135.081L149.449 135.904C149.773 135.948 151.372 136.481 151.698 136.506C156.808 136.871 160.394 135.328 164.253 132.084Z" fill="#29CA69"/>
<path d="M171.276 166.514C168.912 166.841 165.203 166.813 163.107 167.879L163.563 167.911C164.037 169.711 163.189 173.866 164.216 175.118C166.701 174.881 169.221 174.717 171.679 174.277C171.255 171.743 171.391 169.082 171.276 166.514Z" fill="#3E0C45"/>
<path d="M163.107 167.879C160.006 168.254 156.353 168.195 153.244 167.831C153.228 170.227 153.345 172.714 152.998 175.088L153.431 175.699C155.244 176.061 157.199 176.315 159.044 176.334C160.39 176.348 163.312 176.255 164.258 175.313L164.216 175.118C163.189 173.866 164.037 169.711 163.563 167.911L163.107 167.879Z" fill="#FF620F"/>
<path d="M162.655 168.815C160.189 168.942 156.881 168.491 154.545 169.1C154.765 171.167 154.661 173.299 154.656 175.377C156.614 175.405 161.012 175.976 162.518 174.818C163.465 173.14 162.766 171.102 162.676 169.289L162.655 168.815Z" fill="#FFD9EE"/>
<path d="M120.934 141.571C116.483 139.873 112.114 137.994 107.64 136.339C106.79 139.671 106.305 143.083 105.827 146.486C110.03 148.077 113.511 151.896 117.563 153.995C118.389 149.874 119.695 145.593 120.934 141.571Z" fill="#FC9D96"/>
<path d="M162.308 95.2755C158.25 95.9738 148.889 95.8111 145.365 93.4832C147.151 98.8602 155.211 108.268 160.099 111.257C162.772 106.103 162.752 100.956 162.308 95.2755Z" fill="#BEF6D5"/>
<path d="M132.002 121.87C131.388 123.329 130.657 125.05 130.433 126.616C131.618 128.674 131.348 149.215 131.179 152.957C131.011 156.694 130.88 160.895 129.945 164.515C129.92 164.612 129.892 164.709 129.865 164.806C129.923 164.979 129.968 165.239 130.093 165.37C129.118 166.054 128.211 170.142 127.84 171.395C131.462 172.453 135.077 173.152 138.809 173.704C141.06 173.947 143.714 173.951 145.882 174.524C147.81 174.595 151.305 174.315 152.997 175.088C153.344 172.714 153.226 170.227 153.242 167.831C151.318 167.527 149.209 167.585 147.255 167.486C147.012 166.045 146.369 164.681 146.097 163.234C145.606 160.623 146.358 155.07 146.358 155.07C146.358 155.07 148.048 145.214 150.271 136.727C150.451 136.036 151.144 135.024 151.144 135.024L151.767 133.826C148.783 133.145 145.678 133.144 142.678 132.328C137.327 130.873 134.591 126.425 132.002 121.87Z" fill="#29CA69"/>
<path d="M130.093 165.371C129.118 166.054 128.211 170.143 127.84 171.395C131.462 172.454 135.077 173.152 138.809 173.704C141.06 173.947 143.714 173.951 145.882 174.524C147.81 174.595 151.305 174.315 152.997 175.088C153.344 172.714 153.226 170.227 153.242 167.831C151.318 167.527 149.209 167.585 147.255 167.486C141.675 167.366 135.528 166.649 130.093 165.371Z" fill="#2F2C53"/>
<path d="M127.842 171.395C125.9 175.507 123.552 179.36 122.136 183.713C116.031 202.476 121.878 222.44 127.548 240.558C128.438 243.404 129.513 246.209 130.351 249.066C123.495 255.507 116.929 262.312 110.23 268.92C107.298 271.813 104.521 275.037 101.237 277.54C100.724 278.2 100.538 278.457 100.6 279.31C100.67 280.266 101.06 281.288 101.349 282.196C102.044 282.869 102.44 283.53 102.899 284.377C103.877 286.448 105.042 288.504 106.488 290.288C107 290.92 109.517 293.404 109.526 293.973L109.406 294.017L112.722 296.235C115.398 294.035 126.101 286.283 126.101 286.283C126.101 286.283 142.205 270.335 145.884 270.873C148.579 271.268 148.1 287.333 145.188 289.44C145.258 300.113 145.271 310.786 145.226 321.458C146.167 321.568 147.181 321.61 148.1 321.829C150.013 322.333 152.676 322.547 154.642 322.33L156.39 323.073C157.747 323.159 158.741 323.492 159.907 324.179L159.653 322.429L163.026 322.555C163.118 319.252 163.74 315.887 164.207 312.614C165.163 305.903 166.294 299.214 167.08 292.48C167.713 289.498 167.988 286.353 168.395 283.329C169.342 276.286 170.153 269.227 170.828 262.153C173.67 233.152 176.132 203.249 171.679 174.277C169.221 174.717 166.701 174.881 164.217 175.118L164.258 175.313C163.313 176.255 160.39 176.348 159.045 176.334C157.2 176.315 155.244 176.062 153.431 175.699L152.999 175.088C151.307 174.315 147.812 174.595 145.884 174.524C143.716 173.951 141.062 173.947 138.81 173.704C135.079 173.152 131.464 172.453 127.842 171.395Z" fill="#CC8FFC"/>
<path d="M152.997 175.088C151.305 174.315 147.81 174.595 145.882 174.524C149.134 177.807 156.525 177.459 160.737 177.48C161.804 177.485 163.208 177.611 164.15 177.067C164.489 176.491 164.338 175.942 164.257 175.313C163.311 176.255 160.389 176.348 159.043 176.334C157.198 176.315 155.243 176.062 153.43 175.699L152.997 175.088Z" fill="#B252FD"/>
<path d="M127.84 171.395C125.899 175.507 123.551 179.36 122.134 183.713C116.029 202.476 121.876 222.44 127.546 240.557C128.437 243.404 129.512 246.209 130.35 249.066C123.493 255.507 116.928 262.312 110.228 268.92C107.296 271.813 104.519 275.037 101.236 277.54C100.723 278.2 100.536 278.457 100.598 279.31C100.668 280.266 101.058 281.288 101.348 282.196C102.042 282.869 102.438 283.53 102.898 284.377C103.66 283.269 104.249 282.084 105.069 281.005C111.856 272.071 121.082 264.221 129.205 256.453C131.78 253.99 134.811 251.918 137.04 249.124C134.008 229.929 128.702 202.06 133.849 183.409C134.594 180.709 136.243 175.16 138.809 173.704C135.077 173.152 131.462 172.453 127.84 171.395Z" fill="#B252FD"/>
<path d="M169.422 188.202C165.559 193.271 161.408 197.089 155.708 199.975C156.178 204.431 156.045 209.092 156.15 213.576L156.72 233.639C156.871 240.811 157.689 248.321 157.172 255.45C157.029 257.432 156.78 259.806 155.932 261.619C154.079 265.579 148.455 268.768 145.163 271.589C145.602 277.438 145.234 283.563 145.188 289.44C145.258 300.113 145.271 310.786 145.226 321.458C146.167 321.568 147.181 321.61 148.1 321.829C150.013 322.333 152.676 322.547 154.642 322.33C155.325 322.327 156.003 322.317 156.685 322.278L156.771 321.85C159.293 311.068 160.226 299.858 161.786 288.911C164.8 267.763 168.01 246.618 169.206 225.262C169.897 212.918 169.669 200.553 169.422 188.202Z" fill="#B252FD"/>
<path d="M106.5 313C105.865 312.607 105.93 312.541 105.156 312.5C103.193 313.197 101.163 316.97 99.5 318.5C100.629 320.379 103.717 321.821 105.5 323C107.5 319.5 106.711 316.839 106.5 313Z" fill="#CC8FFC"/>
<path d="M146.408 337.663L144.27 337L144.019 340.197C143.955 340.938 144.057 341.497 144.249 342.208C144.822 342.823 145.144 342.856 145.903 343.09C152.711 344.395 168.723 348.029 174.506 344.501C175.195 344.081 175.744 343.51 175.923 342.634C176.203 341.271 175.673 340.34 175.045 339.208C173.2 340.218 170.956 341.462 168.842 341.503C161.389 340.144 153.769 339.575 146.408 337.663Z" fill="#0C0B0D"/>
</g>
<defs>
<clipPath id="clip0_36352_28343">
<rect width="327" height="360" fill="white"/>
</clipPath>
</defs>
</svg>
