<svg width="327" height="320" viewBox="0 0 327 320" fill="none" xmlns="http://www.w3.org/2000/svg">
<circle cx="163.5" cy="159.5" r="123.5" fill="#FAB9C8"/>
<path d="M48.2432 203.863C56.0437 224.129 69.0499 241.98 85.9503 255.616C102.851 269.252 123.048 278.19 144.505 281.53C165.962 284.87 187.92 282.494 208.166 274.64C228.411 266.786 246.228 253.733 259.819 236.797C259.819 236.797 268.935 215.636 247 207.5C199.862 190.017 97.973 178.056 78 181C47.0246 185.565 138.508 254.288 110.5 243.5C83.604 233.14 48.2432 203.863 48.2432 203.863Z" fill="#FFE0E7"/>
<path d="M53.9767 216.569C45.582 200.459 40.8449 182.695 40.103 164.543C39.3612 146.392 42.6329 128.3 49.6849 111.559C56.737 94.8167 67.3957 79.8368 80.9012 67.6867C94.4066 55.5367 110.426 46.5157 127.818 41.267C145.21 36.0183 163.545 34.671 181.517 37.3213C199.489 39.9716 216.656 46.5542 231.792 56.5997C246.928 66.6453 259.662 79.9064 269.085 95.4377C278.509 110.969 284.39 128.388 286.309 146.453C286.309 146.453 279.5 181 256 167.5C225.922 150.221 150.5 90 108.5 99.5C32.3175 116.732 53.9767 216.569 53.9767 216.569Z" fill="#F86C8C"/>
<path d="M106.174 120.635C110.581 117.438 123.701 112.142 132.715 110.643C134.719 110.06 178.287 105.646 183.295 107.145C188.302 108.644 211.339 110.643 228.866 120.635C242.888 128.63 242.721 150.947 240.885 161.106C240.217 161.106 238.681 161.806 237.88 164.604C236.879 168.101 210.337 194.582 194.312 200.578C178.287 206.573 146.737 200.078 130.712 194.582C114.687 189.086 124.703 167.102 116.189 164.604C107.676 162.105 93.1534 166.103 90.6494 164.604C88.1455 163.105 88.6463 157.609 90.6494 143.119C92.6526 128.63 100.665 124.633 106.174 120.635Z" fill="#29CA69" stroke="#29CA69"/>
<path d="M206.472 171.833C208.921 170.245 211.827 169.322 214.614 168.527C214.585 169.286 214.606 170.083 214.499 170.834L214.411 170.874C211.511 171.416 209.163 173.111 206.417 174.017C206.395 173.292 206.448 172.557 206.472 171.833Z" fill="#C0AE7A"/>
<path d="M197.373 142.204L197.509 142.215C197.641 142.562 197.162 143.411 197.072 143.831C196.797 145.114 197.606 146.333 197.112 147.689C196.337 149.815 191.757 151.415 189.734 152.376C189.81 151.305 189.82 150.172 190.05 149.125C191.715 148.389 193.171 147.727 194.484 146.431C192.916 146.398 191.338 146.484 189.77 146.531C190.834 142.803 191.975 143.94 194.997 143.279C195.852 143.091 196.616 142.626 197.373 142.204Z" fill="#FFD9EE"/>
<path d="M216.294 141.84C214.904 148.109 213.484 154.658 213.263 161.09L213.265 163.59C211.191 164.364 209.248 165.326 207.285 166.342C209.408 157.957 212.324 149.54 216.294 141.84Z" fill="#198D4F"/>
<path d="M191.744 108.064L192.407 108.361C192.513 109.504 192.619 110.633 192.467 111.777C191.9 116.068 187.483 127.676 184.75 131.019C184.216 131.672 183.403 132.507 182.496 132.554C180.58 132.652 174.423 128.816 172.539 127.709C171.201 128.884 169.504 130.681 167.885 131.389L167.667 131.345C167.665 131.279 167.665 131.212 167.662 131.146C167.655 130.926 167.642 130.708 167.65 130.488C167.702 129.042 171.891 125.723 172.939 124.788C174.621 125.795 181.483 129.952 183.005 130.012C183.488 130.03 183.982 129.621 184.297 129.296C186.6 126.922 190.584 115.783 191.372 112.269C191.695 110.829 191.801 109.538 191.744 108.064Z" fill="#198D4F"/>
<path d="M213.262 161.09C214.676 160.596 216.236 160.283 217.699 159.953C226.206 158.029 232.741 159 241.004 160.984L240.692 164.868C234.661 162.137 227.586 161.37 221.038 162.127C218.904 162.374 216.791 162.843 214.672 163.198C214.161 163.262 213.716 163.325 213.264 163.59L213.262 161.09Z" fill="#3FBB78"/>
<path d="M128.103 111.229C130.859 110.065 133.987 109.258 136.853 108.383C137.136 109.563 137.106 110.805 137.374 112.008C138.568 116.148 142.267 127.331 145.126 130.127C148.926 128.884 152.754 126.637 156.234 124.667C158.277 126.568 160.386 128.434 162.294 130.47C162.18 131.08 162.172 131.648 162.177 132.267C161.121 132.078 157.272 128.224 156.079 127.33C152.717 129.528 148.468 132.249 144.413 132.555C140.582 129.247 137.137 118.778 136.1 113.769C135.394 113.708 134.686 113.647 133.984 113.547C132.189 113.289 129.242 112.766 128.103 111.229Z" fill="#198D4F"/>
<path d="M187.087 184.858C188.561 183.967 190.047 183.058 191.412 182.008C196.09 178.413 197.723 176.694 203.878 175.832C205.072 179.591 205.304 183.294 205.098 187.214C201.839 186.649 198.569 186.154 195.288 185.727C193.228 185.479 188.766 185.494 187.087 184.858Z" fill="#F9AC75"/>
<path d="M111.912 139.644C113.419 141.593 114.533 144.093 115.726 146.263C120.244 154.483 124.245 163.016 128.294 171.476C129.252 173.478 131.471 177.419 131.951 179.376C128.575 180.829 125.494 182.541 122.509 184.683C122.487 183.768 122.467 182.878 122.308 181.974C122.213 178.503 121.953 175.033 121.733 171.569L121.737 171.332C121.659 169.35 121.549 167.369 121.405 165.391C120.742 165.081 120.056 164.811 119.381 164.528C119.315 163.443 119.17 162.315 118.839 161.277C116.838 153.968 114.529 146.757 111.912 139.644Z" fill="#198D4F"/>
<path d="M214.672 163.197C216.791 162.843 218.903 162.374 221.038 162.127C227.586 161.37 234.661 162.137 240.692 164.868C241.136 165.081 241.585 165.282 242 165.548C241.827 167.697 241.629 169.829 241.173 171.94L240.791 173.851C231.897 169.318 224.104 169.469 214.499 170.834C214.606 170.083 214.585 169.286 214.614 168.527C214.695 166.759 214.656 164.968 214.672 163.197Z" fill="#14FF80"/>
<path d="M214.614 168.527C222.288 166.735 232.726 166.515 239.649 170.804C240.186 171.137 240.686 171.54 241.173 171.941L240.791 173.851C231.897 169.318 224.104 169.469 214.499 170.834C214.606 170.083 214.585 169.286 214.614 168.527Z" fill="#FFD9EE"/>
<path d="M90.5281 134.933C94.4753 126.482 101.127 121.786 109.461 118.149C108.993 119.578 105.253 121.837 103.98 123.044C95.26 131.319 93.8983 140.254 93.8834 151.599C93.8798 154.216 93.7 157.121 94.0569 159.708C94.1236 160.862 94.1427 162.031 94.0605 163.184C91.5045 163.87 89.046 164.754 86.5809 165.71C86.4663 155.094 86.3893 144.924 90.5281 134.933Z" fill="#198D4F"/>
<path d="M94.0581 159.708C102.493 158.244 110.625 159.05 118.84 161.277C119.171 162.315 119.317 163.443 119.382 164.528C120.058 164.811 120.743 165.081 121.406 165.391C121.55 167.369 121.661 169.349 121.738 171.332L121.735 171.568C120.9 172.103 120.196 172.379 119.193 172.172C118.632 172.057 118.076 171.876 117.529 171.709C110.397 169.706 101.964 169.658 94.7279 171.241L94.5636 171.255C94.392 170.483 94.3586 169.646 94.274 168.858C94.039 166.996 94.0308 165.058 94.0618 163.184C94.1439 162.031 94.1248 160.862 94.0581 159.708Z" fill="#14FF80"/>
<path d="M94.2734 168.858C100.842 167.186 111.97 167.733 118.201 169.942C119.41 170.346 120.603 170.745 121.738 171.332L121.734 171.568C120.9 172.103 120.195 172.379 119.192 172.172C118.632 172.057 118.076 171.876 117.529 171.709C110.396 169.706 101.963 169.658 94.7273 171.241L94.563 171.255C94.3914 170.483 94.358 169.646 94.2734 168.858Z" fill="#FFD9EE"/>
<path d="M94.0576 159.708C102.492 158.244 110.625 159.05 118.84 161.277C119.171 162.315 119.316 163.443 119.382 164.528C112.797 162.471 100.836 161.299 94.0613 163.184C94.1434 162.031 94.1243 160.862 94.0576 159.708Z" fill="#3FBB78"/>
<path d="M149.007 89.0532C153.236 93.4424 157.941 97.4762 164.386 97.6208C169.472 97.7351 174.026 95.2439 177.775 92.0191L179.511 90.1126C180.093 92.1582 179.825 96.9147 180.392 98.1039C181.794 98.5825 183.178 99.0036 184.432 99.8201C186.51 101.39 188.083 103.152 189.612 105.254C190.24 106.118 190.929 107.398 191.744 108.064C191.801 109.538 191.695 110.83 191.372 112.269C190.583 115.783 186.599 126.922 184.297 129.296C183.982 129.621 183.488 130.03 183.005 130.012C181.483 129.952 174.621 125.796 172.939 124.788C171.891 125.723 167.701 129.042 167.65 130.488C167.642 130.708 167.654 130.926 167.662 131.146C167.664 131.212 167.665 131.279 167.667 131.345C167.52 139.424 167.468 147.503 167.512 155.584L165.056 155.646L165.037 139.705C165.03 137.371 165.173 134.938 165.043 132.616C165.016 132.131 164.957 131.702 164.739 131.267C164.459 131.534 164.477 132.354 164.467 132.747C164.274 140.334 164.393 148.04 164.494 155.63L162.18 155.651L162.177 132.268C162.171 131.648 162.18 131.08 162.294 130.47C160.386 128.434 158.277 126.568 156.234 124.667C152.754 126.637 148.926 128.884 145.126 130.127C142.267 127.331 138.568 116.148 137.374 112.008C140.208 110.115 145.284 107.494 148.735 106.904C147.72 103.884 148.161 100.76 148.37 97.6456L149.007 89.0532Z" fill="#14FF80"/>
<path d="M149.007 89.0532C153.236 93.4424 157.941 97.4762 164.386 97.6208C169.472 97.7351 174.026 95.2439 177.775 92.0191L179.511 90.1126C180.093 92.1582 179.825 96.9147 180.392 98.1039C180.39 98.1502 180.388 98.1964 180.387 98.2427C180.35 100.418 180.846 102.356 180.408 104.55C178.991 111.649 173.86 117.41 169.506 122.934C167.8 125.098 166.097 127.439 164.203 129.438C159.401 122.12 151.622 115.526 148.866 107.056L148.735 106.904C147.72 103.884 148.161 100.76 148.37 97.6456L149.007 89.0532Z" fill="#F9AC75"/>
<path d="M149.007 89.0532C153.236 93.4424 157.941 97.4762 164.386 97.6208C169.472 97.7351 174.026 95.2439 177.775 92.0191C177.243 95.1274 173.22 99.0786 170.737 100.84C164.973 104.932 155.976 107.339 148.866 107.056L148.735 106.904C147.72 103.884 148.161 100.76 148.37 97.6456L149.007 89.0532Z" fill="#EE805D"/>
<path d="M214.5 170.834C224.105 169.469 231.898 169.318 240.792 173.851C239.756 182.99 238.615 192.005 236.635 200.999C236.105 203.407 235.682 206.113 234.587 208.335C233.355 212.209 231.176 221.213 227.503 223.176C223.033 225.565 209.239 221.594 208.501 221.879C208.496 221.871 208.493 221.861 208.487 221.854C208.188 221.505 200.324 219.446 199.114 219.057C194.843 217.672 190.636 216.113 186.494 214.38C183.746 213.232 172.571 207.718 170.923 207.563C169.428 208.829 164.383 210.814 162.418 211.478C157.844 213.348 153.2 215.021 148.484 216.496C143.768 217.972 138.997 219.246 134.173 220.317C131.511 220.932 128.828 221.428 126.123 221.805C124.531 222.029 122.912 222.12 121.331 222.405C121.017 222.462 120.791 222.53 120.524 222.711L120.428 223.105C120.426 223.024 120.443 222.941 120.422 222.863C120.398 222.777 120.37 222.677 120.297 222.625C120.258 222.597 117.931 222.975 117.654 223.009C115.251 223.301 113.267 223.064 111.027 222.147C109.016 222.985 107.469 224.33 105.287 224.838C104.635 224.662 104.013 224.473 103.406 224.17C102.053 223.495 100.91 222.445 100.014 221.24C97.25 217.527 94.0821 208.808 92.6561 204.342C90.8935 199.952 89.4809 194.043 88.5537 189.365C87.9876 186.509 87.6019 183.59 87.2668 180.699C87.0864 179.142 87.04 177.424 86.678 175.907C86.5785 175.49 86.3915 175.131 86.1729 174.766C88.5524 172.88 91.6895 172.083 94.563 171.255L94.7273 171.241C101.963 169.658 110.396 169.707 117.529 171.709C118.076 171.877 118.632 172.057 119.192 172.172C120.195 172.379 120.9 172.103 121.734 171.569C121.954 175.033 122.214 178.503 122.309 181.974C122.468 182.878 122.488 183.768 122.51 184.683C125.495 182.542 128.576 180.829 131.952 179.377C134.096 178.601 136.425 178.162 138.711 178.383C142.619 178.76 146.478 180.511 150.343 181.328C158.951 183.149 167.788 184.092 176.542 184.923C179.561 185.21 182.8 185.723 185.822 185.62L187.087 184.858C188.766 185.494 193.228 185.479 195.288 185.728C198.569 186.154 201.839 186.649 205.098 187.214C205.304 183.294 205.072 179.591 203.878 175.833C204.739 175.694 205.575 175.652 206.444 175.624L206.418 174.017C209.164 173.112 211.511 171.416 214.412 170.874L214.5 170.834Z" fill="#F9AC75"/>
<path d="M122.51 184.683C122.633 185.648 122.654 190.575 122.172 191.329C122.035 191.542 121.922 191.507 121.695 191.557C121.373 191.342 121.37 191.319 121.289 190.939C121.151 190.292 122.019 182.464 122.308 181.974C122.467 182.878 122.487 183.768 122.51 184.683Z" fill="#EE805D"/>
<path d="M117.858 192.623C118 192.611 117.899 192.613 118.157 192.677C117.702 192.824 117.235 192.958 116.819 193.195C115.543 193.923 114.181 194.497 112.926 195.266C109.081 197.622 105.601 201.469 103.437 205.397L103.373 205.509L103.226 205.537C103.15 203.996 104.24 201.83 105.039 200.53C107.951 195.792 112.684 193.897 117.858 192.623Z" fill="#EF665A"/>
<path d="M187.086 184.858C188.765 185.494 193.228 185.479 195.288 185.727C198.568 186.154 201.838 186.649 205.098 187.214C205.034 187.943 204.908 188.695 205.065 189.417C203.867 188.881 202.5 188.569 201.227 188.242C198.993 187.666 196.72 187.156 194.436 186.824C191.569 186.408 188.661 186.198 185.821 185.619L187.086 184.858Z" fill="#F89569"/>
<path d="M214.411 170.874C214.715 172.743 214.051 177.416 213.957 179.601C213.801 183.603 213.887 187.6 214.213 191.591C218.851 193.956 221.728 196.91 224.361 201.365C223.34 200.385 222.447 199.221 221.358 198.321C217.243 194.917 212.596 192.448 207.672 190.429C206.858 190.095 205.915 189.597 205.065 189.417C204.909 188.695 205.034 187.943 205.098 187.214C205.304 183.294 205.071 179.591 203.878 175.832C204.738 175.694 205.574 175.652 206.443 175.624L206.418 174.017C209.163 173.112 211.511 171.416 214.411 170.874Z" fill="#EE805D"/>
<path d="M127.124 190.378C130.717 189.624 135.003 188.958 138.632 189.596C144.112 190.559 152.575 194.769 157.773 197.152C162.595 199.366 167.44 201.529 172.307 203.641C185.245 209.398 203.947 217.77 218.192 216.963C218.669 216.936 219.146 216.895 219.621 216.839C220.096 216.784 220.569 216.715 221.04 216.631C221.511 216.548 221.979 216.451 222.444 216.339C222.909 216.228 223.371 216.103 223.828 215.965C224.286 215.826 224.739 215.674 225.188 215.508C225.637 215.343 226.08 215.164 226.518 214.972C226.956 214.781 227.388 214.576 227.813 214.358C228.239 214.141 228.658 213.911 229.07 213.668C231.449 212.268 232.695 210.209 234.587 208.335C233.355 212.209 231.176 221.213 227.502 223.176C223.033 225.565 209.238 221.593 208.501 221.879C208.496 221.871 208.493 221.861 208.487 221.854C208.187 221.505 200.324 219.446 199.114 219.057C194.842 217.672 190.636 216.113 186.494 214.38C183.745 213.232 172.571 207.718 170.922 207.563C170.813 207.465 170.656 207.319 170.531 207.227C168.479 205.717 163.502 203.521 161.025 202.26C156.194 199.801 141.055 191.169 136.558 191.896C133.388 191.232 130.37 190.608 127.124 190.378Z" fill="url(#paint0_linear_36352_28019)"/>
<path d="M94.563 171.255L94.7273 171.241C94.7901 174.273 95.0897 177.328 95.3553 180.35C96.0013 187.66 96.9216 194.935 98.116 202.176C98.5787 205.018 98.8807 208.056 99.7558 210.798C100.087 211.836 100.507 212.703 101.299 213.472C105.024 217.09 115.168 217.431 120.257 217.26C130.147 216.928 140.377 214.856 149.835 212.028C153.688 210.875 157.453 209.466 161.285 208.254C155.832 201.722 144.614 194.664 136.558 191.896C141.055 191.169 156.195 199.801 161.026 202.26C163.502 203.521 168.479 205.717 170.532 207.227C170.656 207.319 170.814 207.465 170.923 207.562C169.428 208.829 164.383 210.814 162.418 211.478C157.844 213.348 153.2 215.021 148.484 216.496C143.768 217.972 138.997 219.246 134.173 220.317C131.511 220.931 128.828 221.427 126.123 221.805C124.531 222.029 122.912 222.12 121.331 222.405C121.017 222.462 120.791 222.53 120.524 222.711L120.428 223.105C120.4 222.01 118.264 222.935 117.654 223.009C113.696 223.49 109.539 224.838 105.287 224.838C104.635 224.662 104.013 224.472 103.406 224.17C102.053 223.495 100.91 222.444 100.014 221.239C97.25 217.527 94.0821 208.808 92.6561 204.342C90.8935 199.952 89.4809 194.043 88.5537 189.365C87.9876 186.509 87.6019 183.59 87.2668 180.699C87.0864 179.142 87.04 177.424 86.678 175.907C86.5785 175.49 86.3915 175.131 86.1729 174.766C88.5524 172.88 91.6895 172.083 94.563 171.255Z" fill="#EE805D"/>
<path d="M170.922 207.562C172.57 207.718 183.745 213.232 186.493 214.38C190.636 216.113 194.842 217.672 199.113 219.057C200.324 219.445 208.187 221.504 208.487 221.854C208.493 221.861 208.496 221.87 208.5 221.879C208.826 225.633 209.225 229.438 209.359 233.202C209.795 235.755 209.859 238.483 210.079 241.068C210.442 245.506 210.861 249.938 211.336 254.365L212.182 263.252C212.324 264.747 212.325 266.511 212.73 267.954L212.732 268.209C214.04 275.164 215.438 282.117 216.039 289.177L216.057 289.671C216.776 295.714 216.914 301.919 216.922 308H171.374H159.097H123.044H112.012C112.517 300.672 113.084 293.254 114.011 285.968C113.883 284.527 114.275 282.751 114.436 281.292C114.921 276.942 115.461 272.598 116.056 268.261L115.594 267.993C115.253 267.416 117.152 254.929 117.354 253.363L117.406 252.953C117.727 250.581 117.942 248.186 118.134 245.8C118.544 244.607 118.654 241.439 118.806 240.01C119.402 234.41 120.159 228.729 120.428 223.105L120.523 222.711C120.791 222.53 121.016 222.462 121.33 222.405C122.911 222.12 124.531 222.029 126.122 221.805C128.827 221.427 131.511 220.931 134.172 220.317C138.997 219.246 143.767 217.972 148.483 216.497C153.199 215.021 157.844 213.348 162.417 211.478C164.382 210.814 169.428 208.829 170.922 207.562Z" fill="#29CA69"/>
<path d="M170.922 207.562C172.571 207.718 183.745 213.232 186.494 214.38C190.636 216.113 194.843 217.672 199.114 219.057C200.324 219.445 208.187 221.504 208.487 221.854C208.493 221.861 208.496 221.87 208.501 221.879C208.826 225.633 209.226 229.438 209.359 233.202C209.218 232.76 209.204 232.432 208.75 232.195C208.18 231.898 206.297 231.561 205.574 231.353C203.442 230.745 201.337 230.055 199.258 229.283C190.972 226.242 182.945 222.489 175.033 218.591C171.809 217.003 168.003 215.357 165.182 213.111C153.861 218.792 142.737 224.036 131.259 229.375C131.694 235.986 132.464 242.545 133.17 249.129C133.605 253.19 133.931 257.262 134.417 261.317C134.894 265.299 135.634 269.29 136.011 273.277C132.791 272.848 129.537 272.293 126.354 271.646C125.506 271.217 124.205 271.012 123.272 270.722C120.84 269.978 118.435 269.158 116.057 268.261L115.595 267.993C115.254 267.416 117.152 254.929 117.354 253.363L117.407 252.953C117.727 250.581 117.942 248.186 118.135 245.8C118.545 244.607 118.655 241.439 118.807 240.01C119.403 234.41 120.16 228.729 120.428 223.105L120.524 222.711C120.791 222.53 121.017 222.462 121.331 222.405C122.911 222.12 124.531 222.029 126.122 221.805C128.828 221.427 131.511 220.931 134.173 220.317C138.997 219.246 143.767 217.972 148.483 216.497C153.199 215.021 157.844 213.348 162.418 211.478C164.383 210.814 169.428 208.829 170.922 207.562Z" fill="#198D4F"/>
<path d="M136.01 273.277C158.361 276.505 191.55 275.545 212.73 267.954L212.732 268.209C214.04 275.164 215.438 282.117 216.039 289.177L216.057 289.671C216.776 295.714 216.914 301.919 216.922 308H171.374H159.097H123.044H112.012C112.517 300.672 113.084 293.254 114.011 285.968C113.883 284.527 114.275 282.751 114.436 281.292C114.921 276.942 115.461 272.598 116.056 268.261C118.435 269.158 120.84 269.978 123.271 270.722C124.204 271.012 125.506 271.217 126.354 271.646C129.537 272.293 132.79 272.848 136.01 273.277Z" fill="#292829"/>
<path d="M159.097 308C159.056 307.991 159.014 307.979 158.972 307.97C157.53 307.64 155.042 307.815 153.861 307.02C154.777 306.584 158.258 306.611 159.431 306.502C165.95 305.913 171.98 304.923 177.86 301.853C176.105 304.548 174.236 306.475 171.375 308H159.097Z" fill="#070707"/>
<path d="M136.011 273.277C158.362 276.505 191.55 275.545 212.731 267.954L212.733 268.209C214.041 275.164 215.438 282.117 216.039 289.177L216.057 289.671C215.247 289.606 214.519 289.502 213.741 289.243C207.138 287.039 202.415 278.775 199.481 272.901C195.267 274.195 190.913 274.801 186.571 275.497C169.058 278.307 149.16 279.645 131.631 276.461C129.877 279.597 127.791 282.073 125.546 284.832C123.481 286.288 117.636 289.909 115.063 289.413C114.702 289.343 114.441 289.26 114.174 288.997C114.275 288.685 114.271 288.752 114.535 288.606C115.57 288.44 117.133 287.516 118.097 287.634C117.538 288.165 116.055 288.408 115.303 288.679C115.23 288.706 115.158 288.736 115.084 288.762C114.824 288.852 114.805 288.835 114.601 289.048C115.232 289.28 115.894 289.231 116.537 289.072C122.257 287.663 126.667 284.045 129.812 279.162C130.259 278.467 130.57 277.696 131.008 276.992C131.675 275.92 132.443 274.913 133.091 273.828C133.229 273.597 133.461 273.359 133.393 273.092L133.326 273.113C132.745 272.825 128.121 272.286 127.098 272.103L127.157 272.198C126.645 272.112 126.676 272.065 126.354 271.646C129.537 272.293 132.791 272.848 136.011 273.277Z" fill="#070707"/>
<path d="M212.732 268.209C214.041 275.164 215.438 282.117 216.039 289.177C214.49 288.155 212.732 287.466 211.207 286.382C206.936 283.348 202.487 277.618 200.443 272.774C204.047 271.973 209.67 270.218 212.732 268.209Z" fill="#292829"/>
<path d="M116.056 268.261C118.435 269.158 120.84 269.978 123.271 270.722C124.204 271.012 125.506 271.217 126.354 271.646C126.675 272.065 126.644 272.112 127.156 272.198L127.097 272.103C128.12 272.287 132.745 272.825 133.325 273.113L133.393 273.092C133.461 273.359 133.229 273.597 133.091 273.828C132.443 274.913 131.675 275.92 131.008 276.992C130.57 277.696 130.258 278.467 129.811 279.162C126.667 284.045 122.256 287.663 116.537 289.072C115.893 289.231 115.232 289.28 114.601 289.048C114.804 288.835 114.824 288.852 115.084 288.762C115.157 288.736 115.229 288.706 115.302 288.679C116.054 288.408 117.538 288.165 118.096 287.634C117.133 287.516 115.569 288.44 114.535 288.606C114.27 288.752 114.275 288.685 114.173 288.997C114.441 289.26 114.702 289.343 115.062 289.413C117.636 289.909 123.481 286.288 125.545 284.832C124.679 290.637 124.303 296.575 123.703 302.419C123.551 303.889 123.517 306.681 123.044 308H112.012C112.517 300.672 113.084 293.254 114.011 285.968C113.883 284.527 114.275 282.751 114.436 281.292C114.921 276.942 115.461 272.598 116.056 268.261Z" fill="#161A1B"/>
<path d="M126.782 275.726C127.964 275.842 129.155 276.098 130.327 276.296C129.51 277.792 128.604 279.232 127.607 280.615L125.895 282.601C126.088 280.3 126.454 278.011 126.782 275.726Z" fill="#292829"/>
<path d="M94.0607 163.184C94.0298 165.058 94.038 166.996 94.273 168.859C94.3575 169.646 94.3909 170.483 94.5625 171.255C91.689 172.083 88.552 172.88 86.1724 174.766C85.697 174.133 85.4189 173.459 85.2934 172.68C85.1766 170.943 84.667 168.193 85.3458 166.598C85.5899 166.024 86.0405 165.908 86.5811 165.71C89.0462 164.754 91.5046 163.87 94.0607 163.184Z" fill="#29CA69"/>
<path d="M94.2725 168.858C94.3571 169.646 94.3905 170.483 94.5621 171.255C91.6886 172.083 88.5516 172.88 86.172 174.766C85.6965 174.133 85.4185 173.458 85.293 172.679C87.8387 170.503 91.1043 169.675 94.2725 168.858Z" fill="#C0AE7A"/>
<path d="M131.928 26.7098C133.728 26.1006 134.998 25.3711 136.534 24.2527C136.885 25.4346 135.634 27.4569 135.059 28.5118C134.76 29.06 134.435 29.5615 134.063 30.0637L133.885 30.3063C133.849 30.3544 133.812 30.4019 133.775 30.4497L133.636 30.2231L133.933 29.5848C133.933 28.9471 133.593 28.5496 133.166 28.112C132.727 27.6622 132.329 27.1918 131.928 26.7098Z" fill="#161A1B"/>
<path d="M136.534 24.2524C137.253 23.3119 138.582 22.4323 139.479 21.6144C144.421 17.1103 149.179 13.9078 155.853 12.6061C163.763 11.0633 171.871 12.451 178.585 16.9414C179.758 17.8709 180.884 18.957 181.543 20.3228C183.329 22.8098 184.114 26.8098 183.911 29.8169C186.48 30.0698 188.925 30.3999 190.679 32.5317C192.225 34.4106 192.494 36.7902 192.655 39.1199C192.612 43.3853 191.856 47.747 191.181 51.9517C190.873 53.8733 190.642 56.0381 190.025 57.8831C189.249 59.6906 188.553 61.6328 188.323 63.5973L188.266 64.9378C187.876 66.3997 187.514 67.8685 187.18 69.3442L187.202 69.4359C187.027 70.2635 186.924 71.1001 186.894 71.9455C186.083 79.3496 184.708 84.4927 179.511 90.1125L177.774 92.019C174.026 95.2438 169.472 97.735 164.386 97.6206C157.941 97.476 153.236 93.4423 149.006 89.0531C145.084 83.5794 142.641 79.0498 142.46 72.1379C142.46 71.4624 142.499 70.8156 142.582 70.1456C142.485 69.1769 141.569 67.4934 142.023 66.5892C141.523 65.7724 141.302 64.7251 141.019 63.8157C140.367 61.726 139.717 59.8815 138.463 58.0673C137.339 53.2634 135.999 48.0462 135.8 43.1076C133.528 41.9357 132.072 40.274 130.72 38.1337C131.607 37.8905 132.429 37.6022 133.274 37.2376C131.792 36.4036 130.779 35.6158 129.95 34.1002C131.831 33.0759 132.572 32.0486 133.636 30.2229L133.775 30.4495C133.812 30.4017 133.849 30.3542 133.885 30.3061L134.063 30.0635C134.435 29.5613 134.76 29.0597 135.059 28.5116C135.634 27.4567 136.885 25.4344 136.534 24.2524Z" fill="#F9AC75"/>
<path d="M145.515 59.0689C145.39 58.8339 145.329 58.8608 145.412 58.6491C145.853 57.5237 149.109 55.59 150.286 55.1834C151.797 54.6616 153.577 54.6434 155.031 55.3577C156.403 56.032 157.28 57.3558 157.708 58.7921C157.776 59.0199 157.805 59.2468 157.837 59.4816C156.875 58.0038 155.888 56.6407 154.278 55.8084C153.062 55.1795 151.767 55.0624 150.471 55.5217C149.494 55.8677 145.881 58.267 145.515 59.0689Z" fill="#161A1B"/>
<path d="M145.969 65.8649C146.297 65.5131 147.382 65.1029 147.874 65.1023C148.273 65.102 148.36 65.1682 148.601 65.4381C149.306 66.0731 150.087 66.6811 150.587 67.4964C150.589 67.9599 150.327 68.2391 150.007 68.5616C149.688 68.8825 149.441 69.1146 148.988 69.2244C148.756 69.2026 148.541 69.1826 148.334 69.0616C147.795 68.7461 147.428 68.2146 146.936 67.8392C146.562 67.5536 146.041 67.3506 145.705 67.0369C145.568 66.9086 145.539 66.8136 145.47 66.6587C145.538 66.2612 145.694 66.1387 145.969 65.8649Z" fill="#EE805D"/>
<path d="M145.969 65.8649C146.297 65.5131 147.382 65.1029 147.874 65.1023C148.273 65.102 148.36 65.1682 148.601 65.4381C148.232 65.413 147.797 65.3135 147.46 65.4714C147.688 65.7633 147.54 65.6408 147.856 65.796C148.63 66.1753 149.564 67.2499 149.84 68.0615L149.764 68.3604C149.133 68.4735 148.19 67.8035 147.684 67.4613C147.053 67.0345 146.882 66.6857 146.636 65.9705C146.352 65.8017 146.288 65.8507 145.969 65.8649Z" fill="#F89569"/>
<path d="M184.066 65.7896L184.417 65.8888L184.468 66.1898C183.727 67.618 181.468 69.0101 180.197 69.9948C179.483 69.574 178.822 69.038 178.154 68.5467C177.907 68.3258 177.747 68.1891 177.63 67.8748C178.025 67.3366 178.57 66.6333 179.187 66.3516C179.603 66.1626 180.091 66.1281 180.506 66.3383C180.964 66.5706 181.206 67.3605 181.405 67.8231C182.326 67.2144 183.193 66.4684 184.066 65.7896Z" fill="#EE805D"/>
<path d="M179.867 66.7126C179.892 66.7399 179.924 66.7623 179.942 66.794C180.227 67.2753 180.637 67.7666 180.849 68.2697C180.997 68.6215 180.992 68.4576 180.854 68.8051L180.208 69.0735C179.588 68.7764 179.148 68.3523 178.647 67.8943L179.867 66.7126Z" fill="#F89569"/>
<path d="M159.738 69.8414C160.918 70.4189 161.793 71.0938 163.145 71.3518C165.208 71.7451 166.933 70.9815 168.576 69.8259C168.403 70.6309 168.202 71.4205 167.984 72.2146C167.889 72.3882 167.792 72.5616 167.683 72.7277C167.182 73.4957 166.213 74.0206 165.323 74.1864C164.065 74.4208 162.588 74.1613 161.544 73.4062C160.246 72.4678 159.975 71.3243 159.738 69.8414Z" fill="#EE805D"/>
<path d="M178.021 50.317C178.898 50.2296 179.831 50.0677 180.693 50.3103C182.549 50.8334 183.572 52.6739 184.463 54.2361C181.705 53.17 180.668 52.859 177.617 53.1776C175.601 53.488 173.634 54.1099 171.664 54.6348C171.58 53.4683 171.412 52.3094 171.259 51.1504C173.507 50.8267 175.761 50.5489 178.021 50.317Z" fill="#161A1B"/>
<path d="M148.49 50.1142C151.528 49.7494 155.051 50.771 158.1 51.1047C157.89 52.2195 157.662 53.3307 157.415 54.4381C156.212 54.1368 155.004 53.8534 153.792 53.588C149.866 52.4451 148.323 53.032 144.623 54.3942C145.477 52.3123 146.599 51.2417 148.49 50.1142Z" fill="#161A1B"/>
<path d="M176.171 55.4746L176.317 55.4694C179.453 55.376 181.347 57.5734 183.448 59.5516C183.232 59.862 183.005 60.1772 182.754 60.4606C181.628 61.7303 180.048 61.9905 178.448 62.1248C176.805 62.2077 175.048 62.0619 173.463 61.6063C172.851 61.4308 171.777 61.0923 171.526 60.4265C171.319 59.8792 171.719 59.1952 172.015 58.7532C172.942 57.3665 174.497 55.8028 176.171 55.4746Z" fill="#FFD9EE"/>
<path d="M176.1 56.0399C176.617 56.0151 177.153 55.9943 177.663 56.1059C178.338 56.2532 178.994 56.7024 179.363 57.2866C179.747 57.8944 179.824 58.6346 179.63 59.3201C179.329 60.3844 178.587 61.0308 177.658 61.5627C177.095 61.6298 176.597 61.6634 176.058 61.4559C175.964 61.4192 175.872 61.3779 175.783 61.3321C175.693 61.2862 175.606 61.2358 175.522 61.1812C175.437 61.1265 175.356 61.0677 175.277 61.0048C175.199 60.9419 175.124 60.8752 175.052 60.8049C174.98 60.7343 174.912 60.6603 174.848 60.5828C174.784 60.5056 174.724 60.4252 174.667 60.3417C174.611 60.2582 174.56 60.1722 174.512 60.0837C174.465 59.9949 174.422 59.9041 174.384 59.8111C174.346 59.7213 174.311 59.6299 174.282 59.5367C174.252 59.4437 174.227 59.3494 174.207 59.2539C174.187 59.1583 174.172 59.0619 174.161 58.9647C174.151 58.8676 174.145 58.7702 174.145 58.6724C174.144 58.5748 174.148 58.4774 174.157 58.3802C174.166 58.2828 174.18 58.1862 174.199 58.0904C174.217 57.9946 174.241 57.8999 174.269 57.8063C174.297 57.7127 174.329 57.6208 174.367 57.5304C174.717 56.7037 175.3 56.3688 176.1 56.0399Z" fill="#070707"/>
<path d="M177.956 57.0144C178.365 57.064 178.773 57.0849 179.059 57.4316C179.308 57.732 179.372 58.0363 179.316 58.4166C179.248 58.8821 178.911 59.1568 178.583 59.45C178.306 59.3595 177.982 59.2594 177.747 59.0788C177.437 58.8407 177.244 58.5324 177.24 58.1331C177.235 57.6606 177.647 57.3178 177.956 57.0144Z" fill="#FFD9EE"/>
<path d="M145.515 59.0691C145.88 58.2672 149.493 55.8679 150.47 55.5218C151.767 55.0626 153.061 55.1797 154.277 55.8086C155.887 56.6408 156.874 58.004 157.836 59.4818C157.85 59.5144 157.869 59.5453 157.877 59.5798C157.955 59.928 157.94 60.0632 157.743 60.3645C157.234 61.1456 155.894 61.5207 155.026 61.7228C152.612 62.2846 149.105 62.3741 146.956 60.9795C146.179 60.4755 145.689 59.99 145.515 59.0691Z" fill="#FFD9EE"/>
<path d="M151.285 55.8795C151.86 55.8305 152.445 55.7658 153.007 55.93C153.681 56.1267 154.3 56.578 154.632 57.203C154.965 57.8298 155 58.5707 154.796 59.2432C154.468 60.3223 153.729 60.9796 152.758 61.483C152.327 61.5568 151.933 61.5541 151.507 61.4525C150.781 61.2794 150.143 60.8659 149.752 60.2245C149.311 59.503 149.236 58.6409 149.461 57.8353C149.747 56.8104 150.393 56.3693 151.285 55.8795Z" fill="#070707"/>
<path d="M152.764 57.0475C153.26 57.0381 153.723 57.0078 154.084 57.4102C154.355 57.7127 154.493 58.0179 154.434 58.4269C154.369 58.868 154.123 59.0501 153.799 59.313C153.451 59.3227 153.041 59.3448 152.74 59.1324C152.42 58.9064 152.285 58.633 152.248 58.2542C152.201 57.7835 152.496 57.3948 152.764 57.0475Z" fill="#FFD9EE"/>
<path d="M186.569 69.1931L187.18 69.3444L187.202 69.436C187.027 70.2637 186.924 71.1003 186.894 71.9457C186.083 79.3498 184.708 84.4928 179.511 90.1127L177.774 92.0191C174.025 95.2439 169.472 97.7352 164.386 97.6208C157.941 97.4762 153.236 93.4425 149.006 89.0533C145.083 83.5795 142.64 79.05 142.46 72.1381C142.46 71.4626 142.499 70.8158 142.582 70.1457C143.038 71.7615 143.518 73.3684 144.238 74.891C145.936 78.487 148.897 81.3098 152.646 82.662C152.336 81.8933 152.118 81.0956 151.888 80.3006C152.173 79.6323 152.532 78.9341 153.151 78.5148C154.989 77.2688 172.567 77.5949 175.014 78.0871C175.876 78.2607 176.613 78.4834 177.103 79.2617C177.765 80.3136 177.3 81.5905 177.055 82.7016C178.217 82.2076 179.269 81.6304 180.279 80.8687C184.081 78.0012 185.919 73.8174 186.569 69.1931Z" fill="#2B3033"/>
<path d="M161.442 79.2104C163.961 78.9215 172.96 79.0757 174.926 80.4171C175.366 80.7175 175.584 81.1477 175.647 81.6692C175.78 82.7728 175.094 83.8346 174.419 84.6445C173.21 86.0974 171.088 87.7803 169.149 87.9149C168.554 87.9564 167.972 87.8408 167.536 87.41C166.926 86.8089 166.887 85.8327 166.915 85.0338L166.923 84.8598L167.061 83.9272C166.404 83.733 165.378 84.008 164.657 83.991C163.895 83.9732 163.145 83.811 162.4 83.661C162.621 84.8063 162.857 86.2623 162.172 87.3033C161.908 87.7062 161.522 87.9609 161.042 88.0363C159.794 88.2326 158.306 87.3786 157.318 86.6728C155.937 85.6869 154.25 83.9214 154.023 82.1904C153.949 81.6305 154.055 81.0881 154.432 80.6512C155.662 79.2249 159.683 79.3531 161.442 79.2104Z" fill="#F9AC75"/>
<path d="M159.331 81.2524C159.931 81.3111 160.536 81.5017 161.137 81.5888C162.051 81.723 162.969 81.8098 163.892 81.8493C164.815 81.8886 165.737 81.8804 166.659 81.8245C167.829 81.7601 168.984 81.3444 170.116 81.3166L170.154 81.6251C170.113 81.659 170.072 81.6923 170.032 81.7265C169.808 81.918 169.62 82.0822 169.337 82.1812C167.668 82.7632 161.481 82.883 159.995 82.1382C159.542 81.911 159.494 81.7153 159.331 81.2524Z" fill="#444D52"/>
<path d="M136.534 24.2524C137.253 23.3119 138.582 22.4323 139.479 21.6144C144.421 17.1103 149.179 13.9078 155.853 12.6061C163.763 11.0633 171.871 12.451 178.585 16.9414C179.758 17.8709 180.884 18.957 181.543 20.3228C183.329 22.8098 184.114 26.8098 183.911 29.8169C186.48 30.0698 188.925 30.3999 190.679 32.5317C192.225 34.4106 192.494 36.7902 192.655 39.1199C192.612 43.3853 191.856 47.747 191.181 51.9517C190.873 53.8733 190.642 56.0381 190.025 57.8831C189.249 59.6906 188.553 61.6328 188.323 63.5973L188.266 64.9378C187.876 66.3997 187.514 67.8685 187.18 69.3442L186.57 69.1929C187.077 63.6602 188.37 54.0079 186.827 48.8575C185.416 47.7733 184.468 46.6631 183.439 45.2144C183.212 43.0471 183.838 37.6073 182.019 36.0478C180.473 34.7231 174.95 37.3263 173.178 37.8478C171.637 38.3143 170.069 38.6499 168.472 38.8546C165.089 39.2648 161.809 38.9187 158.489 38.2178C156.131 37.7198 151.816 36.2269 149.616 36.5397C146.356 37.0038 146.822 42.1284 146.205 44.5131C145.629 46.7366 142.919 47.0709 142.342 50.0939C141.802 52.9234 141.719 56.7726 141.751 59.6891C141.76 60.5667 142.371 65.9615 142.298 66.2062C142.252 66.3566 142.114 66.4615 142.023 66.5892C141.523 65.7724 141.302 64.7251 141.019 63.8157C140.367 61.726 139.717 59.8815 138.463 58.0673C137.339 53.2634 135.999 48.0462 135.8 43.1076C133.528 41.9357 132.072 40.274 130.72 38.1337C131.607 37.8905 132.429 37.6022 133.274 37.2376C131.792 36.4036 130.779 35.6158 129.95 34.1002C131.831 33.0759 132.572 32.0486 133.636 30.2229L133.775 30.4495C133.812 30.4017 133.849 30.3542 133.885 30.3061L134.063 30.0635C134.435 29.5613 134.76 29.0597 135.059 28.5116C135.634 27.4567 136.885 25.4344 136.534 24.2524Z" fill="#13173D"/>
<path d="M136.534 24.2524C137.253 23.3119 138.582 22.4323 139.479 21.6144C144.421 17.1103 149.179 13.9078 155.853 12.6061C163.763 11.0633 171.871 12.451 178.585 16.9414C179.758 17.8709 180.884 18.957 181.543 20.3228C181.347 20.1983 181.161 20.0777 180.952 19.9758C180.722 20.3777 180.969 20.8796 181.079 21.323C181.797 24.2088 181.507 27.5995 179.945 30.1736C179.713 30.556 179.45 30.9093 179.172 31.259C176.596 25.0915 173.526 20.2846 167.107 17.6532C163.443 16.1507 159.794 15.8985 155.877 16.171C161.239 16.9089 169.266 19.2595 172.725 23.7624C174.888 26.5775 175.198 29.6106 174.712 33.0236C174.608 33.7605 174.49 34.495 174.356 35.2271C172.462 33.5112 170.628 31.7329 168.855 29.8919C164.817 25.7022 162.301 23.2906 156.485 21.6761C153.257 20.7804 150.205 20.4934 146.869 20.6457C146.644 20.6549 146.42 20.6687 146.196 20.6872C152.57 22.0536 161.491 24.2858 165.194 30.0547C165.898 31.151 166.906 33.4768 166.561 34.8087C166.463 35.1875 166.304 35.4664 165.944 35.6506C164.957 36.1558 163.704 35.519 162.772 35.1128C157.389 32.7667 152.19 29.7349 146.332 28.6665C147.715 29.564 149.211 30.2631 150.161 31.652L150.293 31.8417C148.705 32.6947 146.882 33.1255 145.163 33.6477C142.091 34.5806 139.058 35.4201 135.962 36.2514C135.174 36.4629 134.23 36.917 133.421 36.9218C132.58 36.449 130.875 35.5457 130.557 34.6082C130.494 34.4215 130.576 34.3072 130.635 34.1323C132.432 32.7102 132.767 32.5825 133.775 30.4495C133.812 30.4017 133.849 30.3542 133.885 30.3061L134.063 30.0635C134.435 29.5613 134.76 29.0597 135.058 28.5116C135.634 27.4567 136.885 25.4344 136.534 24.2524Z" fill="#192E56"/>
<path d="M148.369 97.6455C148.16 100.76 147.719 103.884 148.735 106.904C145.284 107.494 140.208 110.115 137.374 112.008C137.106 110.805 137.135 109.563 136.853 108.383C137.307 107.699 137.363 106.148 137.623 105.304C137.785 104.773 138.061 104.253 138.323 103.763C140.263 100.132 144.662 98.7424 148.369 97.6455Z" fill="#3FBB78"/>
<path d="M142.461 72.138C142.1 72.4054 141.737 72.6798 141.341 72.8922C141.197 72.9706 141.05 73.0416 140.899 73.1051C140.749 73.1687 140.595 73.2243 140.439 73.2721C140.283 73.3199 140.124 73.3598 139.964 73.3916C139.804 73.4235 139.642 73.4471 139.479 73.4624C139.316 73.4777 139.153 73.4847 138.99 73.4833C138.826 73.4821 138.663 73.4726 138.5 73.4549C138.338 73.4369 138.177 73.4108 138.017 73.3765C137.857 73.3422 137.699 73.3 137.543 73.2497C135.378 72.5422 133.654 70.4539 132.64 68.4836C131.461 66.1942 130.823 63.3115 131.682 60.8106C132.108 59.5703 132.915 58.4431 134.142 57.8968C135.608 57.2433 137.028 57.5437 138.463 58.0674C139.718 59.8816 140.368 61.726 141.019 63.8158C141.302 64.7252 141.523 65.7725 142.023 66.5893C141.57 67.4935 142.486 69.177 142.583 70.1456C142.499 70.8157 142.461 71.4625 142.461 72.138Z" fill="#EE805D"/>
<path d="M133.795 63.5668L133.652 63.8273C133.531 64.0427 133.446 64.1746 133.229 64.3059C133.019 63.6836 133.342 62.7833 133.637 62.2113C133.916 61.6719 134.357 61.1848 134.948 60.9936C135.805 60.7168 136.859 61.0938 137.595 61.5364C138.81 62.2666 139.417 63.2782 140.015 64.5122C139.699 64.8268 139.734 64.8308 139.291 64.8323C138.738 64.0427 137.925 63.2788 137.088 62.7915C136.432 62.4103 135.713 62.1251 134.96 62.3786C134.489 62.5371 133.995 63.1345 133.795 63.5668Z" fill="#D04137"/>
<path d="M133.795 63.5668C133.995 63.1345 134.489 62.537 134.96 62.3785C135.713 62.125 136.431 62.4103 137.087 62.7914C137.925 63.2788 138.737 64.0426 139.291 64.8322C139.734 64.8307 139.698 64.8268 140.015 64.5121C140.721 66.3176 141.281 68.1862 141.912 70.0194C140.876 69.5148 139.637 69.0172 139.22 67.8431C139.102 67.5113 139.059 67.1579 139.018 66.81C139.332 66.549 139.478 66.2676 139.667 65.9161C139.641 65.3525 139.58 65.3344 139.234 64.9205C138.925 65.1601 138.755 65.3105 138.585 65.6653C138.642 66.1367 138.682 66.2138 138.966 66.5962C138.473 66.4413 138.335 66.3251 137.844 66.5084C137.698 66.7623 137.55 67.013 137.386 67.2554C136.983 67.8492 136.596 68.1481 135.879 68.2751C135.372 67.7841 136.771 66.2053 136.758 65.4914C136.204 64.6507 134.664 64.0387 133.795 63.5668Z" fill="#EF665A"/>
<path d="M190.026 57.8832C191.883 57.6983 193.41 57.6414 194.948 58.9011C196.29 59.9999 196.932 61.6422 197.061 63.336C197.261 65.9697 196.415 68.912 194.648 70.9098C193.478 72.2318 191.895 73.2125 190.089 73.2812C189.588 73.3003 189.073 73.2567 188.572 73.2292C187.947 72.8413 187.408 72.4838 186.895 71.9456C186.925 71.1002 187.028 70.2636 187.203 69.4359L187.181 69.3443C187.515 67.8686 187.877 66.3998 188.266 64.9378L188.323 63.5974C188.554 61.6328 189.25 59.6907 190.026 57.8832Z" fill="#F89569"/>
<path d="M187.729 69.4724C187.927 68.3876 188.61 67.5242 189.221 66.637C189.568 67.0693 189.838 67.3458 190.319 67.6259C189.545 68.2554 188.668 69.1324 187.729 69.4724Z" fill="#EE805D"/>
<path d="M188.266 64.9378C188.73 65.0833 189.487 64.6574 189.927 64.4998C189.326 65.2563 189.176 65.6735 189.221 66.637C188.61 67.5243 187.927 68.3877 187.729 69.4725L187.203 69.4359L187.181 69.3442C187.515 67.8686 187.877 66.3998 188.266 64.9378Z" fill="url(#paint1_linear_36352_28019)"/>
<path d="M190.483 64.2149C190.68 63.6753 191.147 63.3782 191.584 63.0403C191.808 63.478 192.052 64.179 192.371 64.5326C192.817 65.3337 193.403 66.636 193.251 67.5402L192.99 67.6488C191.853 67.0982 191.538 65.2977 190.687 64.417C190.62 64.3484 190.551 64.2824 190.483 64.2149Z" fill="#EF665A"/>
<path d="M191.584 63.0403C191.72 62.9162 191.891 62.7399 192.058 62.6515C193.122 62.0882 194.691 62.8282 195.801 63.0348C195.813 63.4883 195.81 63.5739 195.596 63.9699C194.72 64.6306 193.421 64.4984 192.371 64.5326C192.052 64.1789 191.807 63.478 191.584 63.0403Z" fill="#EE805D"/>
<path d="M188.324 63.5976C188.38 63.7827 188.335 63.6687 188.502 63.9197C189.149 63.0561 189.506 62.2798 190.461 61.6702C191.332 61.1139 192.426 60.8898 193.44 61.1327C194.476 61.3813 195.285 62.1322 195.801 63.0349C194.692 62.8283 193.123 62.0883 192.059 62.6516C191.891 62.7399 191.72 62.9163 191.585 63.0403C191.148 63.3782 190.68 63.6753 190.484 64.215L189.928 64.5C189.487 64.6576 188.731 65.0835 188.267 64.938L188.324 63.5976Z" fill="#D04137"/>
<defs>
<linearGradient id="paint0_linear_36352_28019" x1="177.531" y1="211.555" x2="183.634" y2="193.211" gradientUnits="userSpaceOnUse">
<stop stop-color="#F99763"/>
<stop offset="1" stop-color="#F57E67"/>
</linearGradient>
<linearGradient id="paint1_linear_36352_28019" x1="187.488" y1="66.156" x2="188.815" y2="68.1363" gradientUnits="userSpaceOnUse">
<stop stop-color="#E9654C"/>
<stop offset="1" stop-color="#FD835B"/>
</linearGradient>
</defs>
</svg>
