<svg width="327" height="360" viewBox="0 0 327 360" fill="none" xmlns="http://www.w3.org/2000/svg">
<g clip-path="url(#clip0_36352_28701)">
<circle cx="164.025" cy="179.598" r="123.5" transform="rotate(140.059 164.025 179.598)" fill="#FAB9C8"/>
<path d="M223.913 71.59C204.922 61.0598 183.489 55.7232 161.778 56.1184C140.066 56.5136 118.842 62.6266 100.246 73.8411C81.6508 85.0555 66.3409 100.975 55.8605 119.994C45.3801 139.013 40.0998 160.459 40.552 182.17C40.552 182.17 47.1486 204.247 69.1893 196.402C116.555 179.545 202.352 123.303 215.776 108.223C236.594 84.8368 122.334 90.878 150.733 81.1685C178.006 71.8444 223.913 71.59 223.913 71.59Z" fill="#FFE0E7"/>
<path d="M211.359 65.5288C228.139 72.4916 243.175 83.0703 255.397 96.5108C267.619 109.951 276.725 125.923 282.066 143.286C287.408 160.65 288.853 178.978 286.298 196.964C283.744 214.95 277.253 232.151 267.288 247.34C257.323 262.53 244.13 275.334 228.649 284.84C213.168 294.346 195.781 300.32 177.726 302.335C159.672 304.351 141.395 302.358 124.199 296.5C107.003 290.642 91.3116 281.062 78.2426 268.444C78.2426 268.444 61.2839 237.585 87.9685 232.849C122.123 226.786 218.611 224.538 244.714 190.291C292.061 128.17 211.359 65.5288 211.359 65.5288Z" fill="#F86C8C"/>
<path d="M217.917 223.719C222.055 224.03 229.202 222.818 232.242 225.962C234.719 228.525 234.437 244.45 233.868 248.178C233.661 249.53 233.231 250.752 232.141 251.654C229.022 254.232 220.313 251.557 219.003 254.304L218.112 261.974C211.127 261.866 204.142 261.807 197.156 261.794L197.575 253.43L197.22 253.347C197.659 249.346 198.943 245.421 199.81 241.49C201.184 235.257 201.005 229.695 197.508 224.195C204.312 223.971 211.118 224.178 217.917 223.719Z" fill="#B252FD"/>
<path d="M197.575 253.429C202.181 253.395 214.998 252.484 218.64 253.685L219.003 254.303L218.112 261.973C211.127 261.866 204.142 261.806 197.156 261.794L197.575 253.429Z" fill="#A32EFF"/>
<path d="M106.256 89.3391C116.143 97.6458 124.347 107.846 132.271 117.977C132.755 122.164 132.471 126.496 132.546 130.713C132.578 133.943 132.763 137.163 133.1 140.375C133.438 143.588 133.926 146.777 134.566 149.942C136.06 156.759 138.793 162.737 141.807 169.001C138.284 167.511 134.725 164.206 131.519 162.025C122.98 156.217 113.748 152.39 103.777 149.812C100.404 130.428 101.474 108.393 106.256 89.3391Z" fill="#73E6A1"/>
<path d="M179.25 66.8525C186.924 93.7751 191.13 120.523 185.421 148.34C177.042 162.468 166.812 177.516 162.684 193.562C156.557 184.34 149.61 176.784 141.803 169C138.789 162.737 136.056 156.759 134.562 149.942C139.018 148.683 143.073 147.236 146.933 144.623C164.972 132.42 176.075 107.932 178.401 86.8582C179.071 80.7896 177.691 73.6126 179.019 67.7875C179.091 67.4748 179.173 67.1642 179.25 66.8525Z" fill="#29CA69"/>
<path d="M185.423 148.34C190.768 143.921 194.561 137.116 199.469 132.106C204.484 126.889 209.656 121.834 214.986 116.939C219.228 113.101 223.734 109.49 227.836 105.508C229.861 125.398 227.377 143.768 222.696 163.108C199.545 176.574 187.124 187.236 169.416 207.315C168.483 202.571 165.085 197.693 162.686 193.562C166.814 177.516 177.044 162.468 185.423 148.34Z" fill="#73E6A1"/>
<path d="M222.696 163.108C231.524 157.912 239.916 152.567 247.998 146.24C248.104 172.33 243.417 199.212 224.166 218.394C222.227 220.326 220.065 222.024 217.92 223.719C211.122 224.177 204.316 223.97 197.512 224.194C189.32 223.122 180.426 223.779 172.155 223.765C171.938 217.925 171.019 212.933 169.416 207.315C187.125 187.236 199.545 176.573 222.696 163.108Z" fill="#29CA69"/>
<path d="M163.41 24C170.209 37.8173 175.11 52.0339 179.252 66.8524C179.175 67.164 179.093 67.4747 179.021 67.7873C177.693 73.6124 179.073 80.7894 178.403 86.858C176.076 107.932 164.974 132.42 146.935 144.623C143.075 147.235 139.02 148.683 134.564 149.942C133.924 146.776 133.436 143.587 133.099 140.375C132.761 137.163 132.576 133.942 132.544 130.713C132.469 126.495 132.754 122.163 132.27 117.976C133.815 110.455 134.652 102.85 136.413 95.343C142.165 70.8075 152.046 46.4386 163.41 24Z" fill="#20A958"/>
<path d="M105.625 222.675C106.287 223.161 106.833 223.445 107.664 223.537C114.461 224.289 122.045 223.67 128.926 223.667L172.157 223.765C180.428 223.779 189.322 223.122 197.514 224.194C201.011 229.695 201.19 235.256 199.817 241.489C198.949 245.42 197.665 249.345 197.226 253.347L197.581 253.43L197.162 261.794L196.751 261.802C185.987 261.157 174.88 261.702 164.076 261.707L102.408 261.879L102.26 253.234C99.1743 252.508 95.1813 253.792 92.3351 252.564C91.3597 252.144 90.9125 251.405 90.5685 250.411C88.9637 245.772 88.8487 230.26 91.0343 225.918C93.5492 220.922 100.994 224.68 105.125 222.956C105.301 222.883 105.458 222.769 105.625 222.675Z" fill="#CC8FFC"/>
<path d="M197.225 253.347L197.581 253.43L197.162 261.794L196.751 261.802C185.986 261.157 174.879 261.702 164.075 261.707L102.408 261.879L102.26 253.234C118.743 254.161 135.573 253.452 152.103 253.447C167.015 253.444 182.365 254.172 197.225 253.347Z" fill="#B14EFF"/>
<path d="M102.408 261.879L164.076 261.707C174.88 261.702 185.987 261.157 196.751 261.802C193.435 280.868 175.979 304.085 160.296 315.063C146.113 324.989 129.449 329.658 112.519 332.245C109.318 328.758 109.136 323.604 108.416 319.118C108.079 316.293 107.819 313.505 107.689 310.662C107.562 304.808 106.422 298.634 105.793 292.787C104.688 282.5 103.814 272.125 102.408 261.879Z" fill="#CC8FFC"/>
<path d="M79 145.193C87.4002 146.192 95.4556 148.662 103.777 149.812C113.748 152.39 122.98 156.216 131.519 162.025C134.725 164.206 138.284 167.511 141.807 169C149.613 176.784 156.56 184.34 162.687 193.562C165.087 197.692 168.484 202.571 169.417 207.315C171.02 212.934 171.939 217.925 172.156 223.765L128.925 223.667C122.044 223.67 114.459 224.289 107.663 223.537C106.832 223.445 106.286 223.161 105.623 222.675C84.5424 198.889 81.6289 175.53 79 145.193Z" fill="#20A958"/>
<path d="M218.114 261.974C215.603 278.124 212.79 294.258 210.487 310.436L209.572 321.184C208.933 325.033 208.483 330.92 205.419 333.742C203.699 335.326 199.664 335.468 197.371 335.624C181.931 336.678 164.517 335.825 148.86 335.819C140.417 335.816 126.158 336.741 118.585 335.428C116.266 335.026 114.295 333.719 112.516 332.245C129.445 329.658 146.109 324.989 160.292 315.063C175.975 304.086 193.431 280.868 196.747 261.802L197.158 261.794C204.144 261.807 211.129 261.866 218.114 261.974Z" fill="#B252FD"/>
</g>
<defs>
<clipPath id="clip0_36352_28701">
<rect width="327" height="360" fill="white"/>
</clipPath>
</defs>
</svg>
