<svg width="202" height="228" viewBox="0 0 202 228" fill="none" xmlns="http://www.w3.org/2000/svg">
<path d="M72.7473 228C70.3506 228 68.2007 226.611 67.2647 224.405C61.04 209.733 37.4234 153.314 25.5255 114.261C14.7042 78.741 4.04825 26.0014 0.358784 7.07739C-0.359818 3.39155 2.46953 0 6.22478 0H39.3905C41.8259 0 44.0149 1.46209 44.9266 3.72044C50.2404 16.8828 68.2674 62.1227 77.7333 93.2163C84.7227 116.175 91.9344 147.531 96.3247 167.643C97.2596 171.926 103.659 171.899 104.562 167.61C108.804 147.479 115.832 116.115 122.913 93.2163C132.582 61.9477 151.526 16.6261 157.042 3.61517C157.977 1.40894 160.136 0 162.532 0H195.937C199.638 0 202.451 3.30603 201.819 6.95256C198.554 25.7823 188.933 78.7354 178.133 114.261C166.191 153.539 141.261 210.034 134.773 224.515C133.811 226.661 131.693 228 129.342 228H72.7473Z" fill="#29CA69"/>
</svg>
