<svg width="24" height="24" viewBox="0 0 24 24" fill="none" xmlns="http://www.w3.org/2000/svg">
<path fill-rule="evenodd" clip-rule="evenodd" d="M2.98118 4.90166V18.3332C4.76935 17.6106 7.4398 17.2077 10.3716 18.3974V4.9525C10.3716 4.95226 10.3716 4.95202 10.3716 4.95178C7.16828 3.31562 4.31864 4.13643 2.98118 4.90166ZM12.3527 5.07231V18.4501C14.1354 17.6576 16.9322 17.1449 20.0187 18.3974V4.95178C16.5745 3.19256 13.5391 4.2738 12.3527 5.07231ZM21.9875 4.51529C21.9956 4.56695 21.9998 4.6199 21.9998 4.67387V19.9986C21.9998 20.3566 21.8108 20.6873 21.504 20.8661C21.1973 21.0449 20.8194 21.0445 20.513 20.8652C16.7331 18.653 13.3547 19.9675 12.2235 20.8061C12.0067 20.9668 11.7467 21.0253 11.5 20.9902C11.2841 21.0208 11.0606 20.9791 10.8658 20.8652C7.08594 18.653 3.70759 19.9675 2.5764 20.8061C2.27539 21.0292 1.87584 21.0624 1.54288 20.8918C1.20991 20.7212 1.00007 20.3759 1.00007 19.9986V4.39524C1.00007 4.38938 1.00012 4.38352 1.00022 4.37768C0.993714 4.06245 1.13421 3.74908 1.40484 3.54846C2.98374 2.378 7.02055 0.885318 11.4668 3.26979C13.3223 2.13314 17.2559 1.00225 21.5056 3.48936C21.8712 3.70333 22.0508 4.11738 21.9875 4.51529Z" fill="#ACADB0"/>
</svg>
