<svg width="24" height="24" viewBox="0 0 24 24" fill="none" xmlns="http://www.w3.org/2000/svg">
<rect width="24" height="24" rx="6" fill="#F7F7FB"/>
<path fill-rule="evenodd" clip-rule="evenodd" d="M8.71929 7.28059C8.53069 7.09843 8.27808 6.99764 8.01589 6.99992C7.75369 7.00219 7.50288 7.10736 7.31747 7.29277C7.13206 7.47818 7.02689 7.72899 7.02461 7.99119C7.02234 8.25339 7.12313 8.50599 7.30529 8.69459L10.5983 11.9876L7.30529 15.2806C7.20978 15.3728 7.1336 15.4832 7.08119 15.6052C7.02878 15.7272 7.00119 15.8584 7.00004 15.9912C6.99888 16.124 7.02419 16.2556 7.07447 16.3785C7.12475 16.5014 7.199 16.6131 7.29289 16.707C7.38679 16.8009 7.49844 16.8751 7.62133 16.9254C7.74423 16.9757 7.87591 17.001 8.00869 16.9998C8.14147 16.9987 8.27269 16.9711 8.39469 16.9187C8.5167 16.8663 8.62704 16.7901 8.71929 16.6946L12.0123 13.4016L15.3053 16.6946C15.4939 16.8767 15.7465 16.9775 16.0087 16.9753C16.2709 16.973 16.5217 16.8678 16.7071 16.6824C16.8925 16.497 16.9977 16.2462 17 15.984C17.0022 15.7218 16.9014 15.4692 16.7193 15.2806L13.4263 11.9876L16.7193 8.69459C16.9014 8.50599 17.0022 8.25339 17 7.99119C16.9977 7.72899 16.8925 7.47818 16.7071 7.29277C16.5217 7.10736 16.2709 7.00219 16.0087 6.99992C15.7465 6.99764 15.4939 7.09843 15.3053 7.28059L12.0123 10.5736L8.71929 7.28059Z" fill="#ACADB0"/>
</svg>
