<svg width="24" height="24" viewBox="0 0 24 24" fill="none" xmlns="http://www.w3.org/2000/svg">
<path fill-rule="evenodd" clip-rule="evenodd" d="M11.3767 1.21801C11.7414 0.92733 12.2586 0.92733 12.6233 1.21801C14.0428 2.34941 15.1389 2.89639 16.2073 3.17884C17.3007 3.46792 18.4298 3.5 20 3.5C20.5523 3.5 21 3.94772 21 4.5V14.1125C21 15.2012 20.7964 16.1438 20.3654 16.9886C19.2035 19.2658 16.6345 20.4873 14.5092 21.7022C13.8984 22.0513 13.2527 22.4204 12.5095 22.8605C12.1953 23.0465 11.8047 23.0465 11.4905 22.8605C10.7473 22.4204 10.1016 22.0513 9.49078 21.7022C7.36554 20.4873 4.79654 19.2658 3.63463 16.9886C3.20356 16.1438 3 15.2012 3 14.1125V4.5C3 3.94772 3.44772 3.5 4 3.5C5.57021 3.5 6.69933 3.46792 7.79273 3.17884C8.86108 2.89639 9.95724 2.34941 11.3767 1.21801ZM19 5.49321C17.8419 5.47317 16.77 5.39635 15.6961 5.11241C14.483 4.7917 13.315 4.22175 12 3.25895C10.685 4.22175 9.51697 4.7917 8.30394 5.11241C7.22996 5.39635 6.15811 5.47317 5 5.49321V14.1125C5 14.9417 5.15232 15.5626 5.41612 16.0796C6.36726 17.9437 8.69924 18.9442 10.4335 19.9371C10.9304 20.2217 11.4628 20.5265 12 20.8401C12.5372 20.5265 13.0696 20.2216 13.5665 19.9371C15.3008 18.9442 17.6327 17.9437 18.5839 16.0796C18.8477 15.5626 19 14.9417 19 14.1125V5.49321Z" fill="#ACADB0"/>
</svg>
