<svg width="16" height="16" viewBox="0 0 16 16" fill="none" xmlns="http://www.w3.org/2000/svg">
<g clip-path="url(#clip0_12_25889)">
<path fill-rule="evenodd" clip-rule="evenodd" d="M13.0062 2.51156C12.8443 2.44453 12.6661 2.42714 12.4943 2.46159C12.3224 2.49604 12.1647 2.58078 12.0412 2.70505L12.0392 2.70708L3.22695 11.5193L2.75722 13.2418L4.47974 12.7721L13.2919 3.95987L13.2921 3.9597C13.4585 3.79342 13.552 3.56786 13.5521 3.33265L13.5521 3.33051C13.5525 3.15528 13.5008 2.98386 13.4036 2.83804C13.3064 2.69223 13.1681 2.57859 13.0062 2.51156ZM12.1011 0.50062C12.6616 0.388224 13.2429 0.444967 13.7712 0.663644C14.2994 0.882321 14.7507 1.25306 15.0678 1.72878C15.3847 2.2042 15.5533 2.76303 15.5521 3.33437C15.5515 4.09957 15.2472 4.83327 14.706 5.37425L5.70616 14.3741C5.5831 14.4971 5.43005 14.586 5.26215 14.6317L1.59515 15.6317C1.24894 15.7262 0.878692 15.6278 0.624948 15.3741C0.371203 15.1203 0.272873 14.7501 0.367285 14.4039L1.36728 10.7369C1.41307 10.569 1.50189 10.4159 1.62495 10.2929L10.6229 1.2949C10.6233 1.29451 10.6237 1.29413 10.6241 1.29374C11.027 0.888955 11.5411 0.61291 12.1011 0.50062ZM15.5521 3.33437C15.5521 3.33473 15.5521 3.33508 15.5521 3.33544L14.5521 3.33298L15.5521 3.3333C15.5521 3.33366 15.5521 3.33402 15.5521 3.33437Z" fill="#5F6365"/>
</g>
<defs>
<clipPath id="clip0_12_25889">
<rect width="16" height="16" fill="white"/>
</clipPath>
</defs>
</svg>
