<svg width="24" height="24" viewBox="0 0 24 24" fill="none" xmlns="http://www.w3.org/2000/svg">
<path fill-rule="evenodd" clip-rule="evenodd" d="M21 9.58397L12 3.24167L3 9.58397V20.9799H7V14.708C7 13.0345 8.34315 11.6778 10 11.6778H14C15.6569 11.6778 17 13.0345 17 14.708V20.9799H21V9.58397ZM1.42782 8.22868C1.15975 8.41759 1 8.72691 1 9.05707V21.9899C1 22.5478 1.44772 23 2 23H9V14.708C9 14.1502 9.44772 13.698 10 13.698H14C14.5523 13.698 15 14.1502 15 14.708V23H22C22.5523 23 23 22.5478 23 21.9899V9.05707C23 8.72691 22.8403 8.41759 22.5722 8.22868L12.5722 1.18168C12.2284 0.939439 11.7716 0.939439 11.4278 1.18168L1.42782 8.22868Z" fill="#ACADB0"/>
</svg>
