<svg width="25" height="24" viewBox="0 0 25 24" fill="none" xmlns="http://www.w3.org/2000/svg">
<path fill-rule="evenodd" clip-rule="evenodd" d="M17.5 9C17.5 11.7614 15.2614 14 12.5 14C9.73858 14 7.5 11.7614 7.5 9C7.5 6.23858 9.73858 4 12.5 4C15.2614 4 17.5 6.23858 17.5 9ZM15.5 9C15.5 10.6569 14.1569 12 12.5 12C10.8431 12 9.5 10.6569 9.5 9C9.5 7.34315 10.8431 6 12.5 6C14.1569 6 15.5 7.34315 15.5 9Z" fill="#B2B7B9"/>
<path fill-rule="evenodd" clip-rule="evenodd" d="M6.25 1C3.62665 1 1.5 3.12665 1.5 5.75V18.25C1.5 20.8734 3.62665 23 6.25 23H18.75C21.3734 23 23.5 20.8734 23.5 18.25V5.75C23.5 3.12665 21.3734 1 18.75 1H6.25ZM3.5 5.75C3.5 4.23122 4.73122 3 6.25 3H18.75C20.2688 3 21.5 4.23122 21.5 5.75V18.25C21.5 18.625 21.4249 18.9825 21.289 19.3082C19.0892 16.7437 15.7599 15.5 12.5 15.5C9.24014 15.5 5.9108 16.7437 3.71098 19.3082C3.57506 18.9825 3.5 18.625 3.5 18.25V5.75ZM12.5 17.5C15.3538 17.5 18.135 18.6119 19.89 20.7533C19.5427 20.9117 19.1566 21 18.75 21H6.25C5.84335 21 5.45732 20.9117 5.11002 20.7533C6.86503 18.6119 9.6462 17.5 12.5 17.5Z" fill="#B2B7B9"/>
</svg>
