<svg width="24" height="24" viewBox="0 0 24 24" fill="none" xmlns="http://www.w3.org/2000/svg">
<path d="M15.7423 2C15.2703 1.71329 14.6552 1.86353 14.3685 2.33556C14.0818 2.80759 14.232 3.42268 14.704 3.70939C15.0271 3.90564 15.3397 4.17431 15.5753 4.56524C15.8085 4.95234 16 5.51523 16 6.35469C16 7.19415 15.8085 7.75705 15.5753 8.14415C15.3397 8.53508 15.0271 8.80375 14.704 9C14.232 9.28671 14.0818 9.90179 14.3685 10.3738C14.6552 10.8459 15.2703 10.9961 15.7423 10.7094C16.2732 10.3869 16.849 9.9056 17.2884 9.1762C17.7301 8.44298 18 7.51523 18 6.35469C18 5.19415 17.7301 4.26641 17.2884 3.53318C16.849 2.80379 16.2732 2.32246 15.7423 2Z" fill="#ACADB0"/>
<path d="M19.394 14.0571C18.9595 13.7162 18.3309 13.7921 17.99 14.2266C17.6491 14.6611 17.725 15.2897 18.1595 15.6306C18.6811 16.0398 19.4119 16.9339 20.0226 17.9668C20.321 18.4714 20.5726 18.9792 20.747 19.4389C20.8252 19.6448 20.8831 19.8291 20.9237 19.9904C20.781 19.9991 20.6323 20.0001 20.4999 20.0001H20.0268C19.4745 20.0001 19.0268 20.4478 19.0268 21.0001C19.0268 21.5524 19.4745 22.0001 20.0268 22.0001L20.52 22.0001C20.7295 22.0002 20.9237 22.0001 21.5 22.0003C22.1875 22.0005 23 22.0172 23 20.5002C23 19.9248 22.8353 19.3049 22.617 18.7295C22.3933 18.1399 22.0867 17.5282 21.7442 16.9489C21.0734 15.8143 20.1926 14.6836 19.394 14.0571Z" fill="#ACADB0"/>
<path fill-rule="evenodd" clip-rule="evenodd" d="M9 12.0002C8.07961 12.0002 7.16621 12.1556 6.29106 12.4596C6.03723 12.5477 5.78662 12.6484 5.53999 12.7614C4.44303 13.2639 3.44631 14.0005 2.60673 14.9291C1.76716 15.8577 1.10117 16.9601 0.646795 18.1734C0.308028 19.0779 0.091837 20.0309 0.00375506 21.0015C-0.04616 21.5516 0.408334 22.0002 0.963162 22.0002H17.0368C17.5917 22.0002 18.0462 21.5516 17.9962 21.0015C17.9082 20.0309 17.692 19.0779 17.3532 18.1734C16.8988 16.9601 16.2328 15.8577 15.3933 14.9291C14.5537 14.0005 13.557 13.2639 12.46 12.7614C12.2134 12.6484 11.9628 12.5477 11.7089 12.4596C10.8338 12.1556 9.92039 12.0002 9 12.0002ZM15.4706 18.872C15.6078 19.2384 15.7206 19.6155 15.8082 20.0002H2.19182C2.27941 19.6155 2.39222 19.2384 2.52944 18.872C2.89887 17.8855 3.4357 17.002 4.10017 16.2671C4.76427 15.5325 5.54109 14.9625 6.38001 14.5782C7.21815 14.1942 8.10772 14.0002 9 14.0002C9.89228 14.0002 10.7819 14.1942 11.62 14.5782C12.4589 14.9625 13.2357 15.5325 13.8998 16.2671C14.5643 17.002 15.1011 17.8855 15.4706 18.872Z" fill="#ACADB0"/>
<path fill-rule="evenodd" clip-rule="evenodd" d="M9 11.0002C8.06985 11.0002 7.20166 10.7508 6.46699 10.3192C5.11365 9.52417 4.21335 8.11102 4.21335 6.50019C4.21335 4.01491 6.35641 2.00019 9 2.00019C11.6436 2.00019 13.7866 4.01491 13.7866 6.50019C13.7866 8.11102 12.8864 9.52417 11.533 10.3192C10.7983 10.7508 9.93015 11.0002 9 11.0002ZM11.7774 6.50019C11.7774 7.77473 10.6437 9.00019 9 9.00019C7.35632 9.00019 6.22256 7.77473 6.22256 6.50019C6.22256 5.22564 7.35632 4.00019 9 4.00019C10.6437 4.00019 11.7774 5.22565 11.7774 6.50019Z" fill="#ACADB0"/>
</svg>
