<svg width="25" height="24" viewBox="0 0 25 24" fill="none" xmlns="http://www.w3.org/2000/svg">
<path d="M3.48154 12.0007C3.48198 11.8376 3.48682 11.6736 3.49615 11.5088C3.75044 7.01763 7.25621 3.48259 11.5985 3.05985V3.99403C11.5985 4.54631 12.0462 4.99402 12.5985 4.99402C13.1508 4.99402 13.5985 4.54631 13.5985 3.99403V3.08971C14.7692 3.24357 16.0735 3.65372 17.3259 4.32431C17.8128 4.585 18.4188 4.40165 18.6795 3.91477C18.9402 3.42789 18.7568 2.82186 18.27 2.56117C16.5653 1.64843 14.6389 1.13377 13.0046 1.04124C6.9392 0.697829 1.84276 5.33041 1.49935 11.3958C1.15593 17.4611 5.79455 22.6565 11.86 22.9999C17.9254 23.3433 23.1208 18.7048 23.4642 12.6394C23.504 11.9368 23.4768 11.245 23.388 10.5704C23.3159 10.0229 22.8136 9.63744 22.266 9.70953C21.7185 9.78162 21.333 10.2839 21.4051 10.8315C21.4552 11.2122 21.4814 11.6002 21.482 11.9939H20.5985C20.0462 11.9939 19.5985 12.4417 19.5985 12.9939C19.5985 13.5462 20.0462 13.9939 20.5985 13.9939H21.2635C20.4358 17.6927 17.3503 20.4849 13.5985 20.9495V19.9939C13.5985 19.4416 13.1508 18.9939 12.5985 18.9939C12.0462 18.9939 11.5985 19.4416 11.5985 19.9939V20.9742C7.66545 20.5892 4.53142 17.7014 3.69907 13.9939H4.59849C5.15077 13.9939 5.59849 13.5462 5.59849 12.9939C5.59849 12.4417 5.15077 11.9939 4.59849 11.9939H3.59849C3.55892 11.9939 3.5199 11.9963 3.48154 12.0007Z" fill="#ACADB0"/>
<path d="M23.3794 4.36933C23.7244 4.80059 23.6544 5.42988 23.2232 5.77488L13.2232 13.7748C12.8671 14.0597 12.3633 14.0676 11.9985 13.7939L7.99849 10.794C7.55666 10.4626 7.46711 9.8358 7.79849 9.39398C8.12986 8.95215 8.75666 8.86261 9.19849 9.19398L12.5787 11.7291L21.9738 4.21316C22.4051 3.86815 23.0343 3.93807 23.3794 4.36933Z" fill="#ACADB0"/>
</svg>
