<svg width="25" height="24" viewBox="0 0 25 24" fill="none" xmlns="http://www.w3.org/2000/svg">
<path d="M3.48251 12.0007C3.48296 11.8376 3.4878 11.6736 3.49713 11.5088C3.75141 7.01763 7.25719 3.48259 11.5995 3.05985V3.99403C11.5995 4.54631 12.0472 4.99402 12.5995 4.99402C13.1517 4.99402 13.5995 4.54631 13.5995 3.99403V3.08971C14.7702 3.24357 16.0745 3.65372 17.3269 4.32431C17.8138 4.585 18.4198 4.40165 18.6805 3.91477C18.9412 3.42789 18.7578 2.82186 18.2709 2.56117C16.5663 1.64843 14.6399 1.13377 13.0056 1.04124C6.94018 0.697829 1.84374 5.33041 1.50032 11.3958C1.15691 17.4611 5.79552 22.6565 11.8609 22.9999C17.9264 23.3433 23.1217 18.7048 23.4652 12.6394C23.5049 11.9368 23.4778 11.245 23.389 10.5704C23.3169 10.0229 22.8146 9.63744 22.267 9.70953C21.7194 9.78162 21.334 10.2839 21.4061 10.8315C21.4562 11.2122 21.4824 11.6002 21.483 11.9939H20.5995C20.0472 11.9939 19.5995 12.4417 19.5995 12.9939C19.5995 13.5462 20.0472 13.9939 20.5995 13.9939H21.2645C20.4368 17.6927 17.3513 20.4849 13.5995 20.9495V19.9939C13.5995 19.4416 13.1517 18.9939 12.5995 18.9939C12.0472 18.9939 11.5995 19.4416 11.5995 19.9939V20.9742C7.66643 20.5892 4.53239 17.7014 3.70005 13.9939H4.59946C5.15175 13.9939 5.59946 13.5462 5.59946 12.9939C5.59946 12.4417 5.15175 11.9939 4.59946 11.9939H3.59946C3.5599 11.9939 3.52088 11.9963 3.48251 12.0007Z" fill="#29CA69"/>
<path d="M23.3803 4.36933C23.7253 4.80059 23.6554 5.42988 23.2242 5.77488L13.2242 13.7748C12.868 14.0597 12.3643 14.0676 11.9995 13.7939L7.99946 10.794C7.55763 10.4626 7.46809 9.8358 7.79946 9.39398C8.13083 8.95215 8.75763 8.86261 9.19946 9.19398L12.5797 11.7291L21.9748 4.21316C22.406 3.86815 23.0353 3.93807 23.3803 4.36933Z" fill="#29CA69"/>
</svg>
