<svg width="24" height="24" viewBox="0 0 24 24" fill="none" xmlns="http://www.w3.org/2000/svg">
<path fill-rule="evenodd" clip-rule="evenodd" d="M16 12C16 14.2091 14.2091 16 12 16C9.79086 16 8 14.2091 8 12C8 9.79086 9.79086 8 12 8C14.2091 8 16 9.79086 16 12ZM14 12C14 13.1046 13.1046 14 12 14C10.8954 14 10 13.1046 10 12C10 10.8954 10.8954 10 12 10C13.1046 10 14 10.8954 14 12Z" fill="#29CA69"/>
<path fill-rule="evenodd" clip-rule="evenodd" d="M9.98068 3.25212C10.8093 1.58263 13.1907 1.58263 14.0193 3.25212C14.5203 4.26155 15.6898 4.74595 16.7578 4.38644C18.5242 3.79185 20.2082 5.47576 19.6136 7.24219C19.254 8.31023 19.7384 9.47968 20.7479 9.98068C22.4174 10.8093 22.4174 13.1907 20.7479 14.0193C19.7384 14.5203 19.254 15.6898 19.6136 16.7578C20.2082 18.5242 18.5242 20.2082 16.7578 19.6136C15.6898 19.254 14.5203 19.7384 14.0193 20.7479C13.1907 22.4174 10.8093 22.4174 9.98068 20.7479C9.47968 19.7384 8.31023 19.254 7.24219 19.6136C5.47576 20.2082 3.79185 18.5242 4.38644 16.7578C4.74595 15.6898 4.26155 14.5203 3.25212 14.0193C1.58263 13.1907 1.58263 10.8093 3.25212 9.98068C4.26155 9.47968 4.74595 8.31023 4.38644 7.24219C3.79185 5.47576 5.47576 3.79185 7.24219 4.38644C8.31023 4.74595 9.47968 4.26155 9.98068 3.25212ZM6.61315 6.25517C8.61535 6.92913 10.8077 6.02105 11.7469 4.12872C11.8519 3.91704 12.1529 3.92675 12.2531 4.12872C13.1923 6.02105 15.3846 6.92913 17.3868 6.25517C17.6057 6.18149 17.8185 6.39426 17.7448 6.61315C17.0709 8.61535 17.979 10.8077 19.8713 11.7469C20.0839 11.8524 20.0743 12.1524 19.8713 12.2531C17.979 13.1923 17.0709 15.3846 17.7448 17.3868C17.8185 17.6057 17.6057 17.8185 17.3868 17.7448C15.3846 17.0709 13.1923 17.979 12.2531 19.8713C12.153 20.0731 11.8519 20.0829 11.7469 19.8713C10.8077 17.979 8.61535 17.0709 6.61315 17.7448C6.39426 17.8185 6.18149 17.6057 6.25517 17.3868C6.92913 15.3846 6.02105 13.1923 4.12872 12.2531C3.92184 12.1505 3.92184 11.8495 4.12872 11.7469C6.02105 10.8077 6.92913 8.61535 6.25517 6.61315C6.18115 6.39324 6.39324 6.18115 6.61315 6.25517Z" fill="#29CA69"/>
</svg>
