<svg width="24" height="24" viewBox="0 0 24 24" fill="none" xmlns="http://www.w3.org/2000/svg">
<path d="M14.5809 15.9832C16.236 14.328 18.8416 14.1754 20.5742 15.632L21.8261 16.6867C23.2548 17.8891 23.4001 20.0565 22.1482 21.5265C21.4654 22.3164 20.5044 22.8125 19.4651 22.9117C15.4648 23.4505 11.2683 21.5229 6.87324 17.1275C2.47819 12.7321 0.549448 8.53401 1.08824 4.53455C1.11623 4.22162 1.18126 3.91312 1.28196 3.61551C1.51495 2.93185 1.92624 2.3228 2.47334 1.85129C3.94442 0.60048 6.11046 0.744572 7.31275 2.17459L8.36611 3.42662C9.82507 5.15693 9.67372 7.76391 8.01862 9.41915L7.12023 10.3164C6.88072 10.5564 6.80229 10.9136 6.91925 11.2318C7.24615 12.1254 8.08037 13.2418 9.41947 14.581C10.7598 15.9214 11.8761 16.7545 12.7684 17.0827C13.0869 17.1993 13.4441 17.1204 13.6838 16.8804L14.5809 15.9832Z" fill="#29CA69"/>
</svg>
