<svg width="24" height="24" viewBox="0 0 24 24" fill="none" xmlns="http://www.w3.org/2000/svg">
<path d="M2.34878 10.2745C2.34878 10.2745 12.0789 6.10369 15.4534 4.63503C16.747 4.04761 21.134 2.16772 21.134 2.16772C21.134 2.16772 23.1588 1.34534 22.99 3.34263C22.9337 4.1651 22.4838 7.04356 22.0339 10.1571C21.3589 14.563 20.6278 19.38 20.6278 19.38C20.6278 19.38 20.5153 20.7312 19.5592 20.9662C18.6031 21.2011 17.0282 20.1438 16.747 19.9087C16.522 19.7325 12.5288 17.089 11.0665 15.7966C10.6727 15.4441 10.2228 14.7392 11.1227 13.9168C13.1475 11.9782 15.5659 9.56965 17.0282 8.04228C17.7031 7.33731 18.378 5.69246 15.5659 7.68975C11.5727 10.5683 7.63564 13.2706 7.63564 13.2706C7.63564 13.2706 6.73572 13.858 5.04845 13.3293C3.3611 12.8006 1.39259 12.0957 1.39259 12.0957C1.39259 12.0957 0.0428323 11.2145 2.34878 10.2745Z" fill="#2AABEE"/>
</svg>
