<svg width="16" height="16" viewBox="0 0 16 16" fill="none" xmlns="http://www.w3.org/2000/svg">
<g clip-path="url(#clip0_12_25894)">
<path fill-rule="evenodd" clip-rule="evenodd" d="M6.26074 2.53432C6.18283 2.61112 6.143 2.71044 6.143 2.80991V2.99991H9.858V2.80991C9.858 2.71015 9.81794 2.61054 9.73958 2.53365C9.66147 2.45699 9.55017 2.40991 9.43 2.40991H6.571C6.45279 2.40991 6.34054 2.45665 6.26074 2.53432ZM11.858 2.99991V2.80991C11.858 2.16767 11.5981 1.55529 11.1404 1.10618C10.6825 0.656835 10.0658 0.409912 9.43 0.409912H6.571C5.93354 0.409912 5.3181 0.658906 4.86194 1.10485L4.86058 1.10618C4.40294 1.55529 4.143 2.16767 4.143 2.80991V2.99991H2C1.44772 2.99991 1 3.44763 1 3.99991C1 4.5522 1.44772 4.99991 2 4.99991V13.6014C2.00045 13.9191 2.06433 14.2335 2.1879 14.5261C2.3111 14.8179 2.49118 15.0823 2.71761 15.3038C3.17358 15.7512 3.78888 16 4.428 16H11.572C12.2095 16 12.8249 15.751 13.2811 15.3051L13.2824 15.3037C13.7401 14.8546 14 14.2422 14 13.6V4.99991C14.5523 4.99991 15 4.5522 15 3.99991C15 3.44763 14.5523 2.99991 14 2.99991H11.858ZM12 4.99991H4V13.5991C4.00013 13.6503 4.01047 13.701 4.0304 13.7482C4.05039 13.7955 4.07963 13.8384 4.11641 13.8743L4.11839 13.8762C4.19642 13.9528 4.30712 14 4.428 14H11.572C11.6902 14 11.8024 13.9533 11.8822 13.8756C11.9602 13.7988 12 13.6995 12 13.6V4.99991Z" fill="#5F6365"/>
</g>
<defs>
<clipPath id="clip0_12_25894">
<rect width="16" height="16" fill="white"/>
</clipPath>
</defs>
</svg>
